<svg width="45" height="45" viewBox="0 0 45 45" fill="none" xmlns="http://www.w3.org/2000/svg">
<circle cx="22.5" cy="22.5" r="22.5" fill="#4267B2"/>
<path fill-rule="evenodd" clip-rule="evenodd" d="M26.5203 14.6281L24.3967 14.625C22.0113 14.625 20.4693 16.1453 20.4693 18.5007V20.2869H18.3333C18.1491 20.2869 18.0001 20.4318 18.0001 20.6077V23.198C18.0001 23.376 18.1491 23.5199 18.3333 23.5199H20.4693V30.0532C20.4693 30.2301 20.6183 30.375 20.8025 30.375H23.5885C23.7737 30.375 23.9227 30.2301 23.9227 30.0532V23.5199H26.4189C26.6041 23.5199 26.7532 23.376 26.7532 23.198L26.7542 20.6077C26.7542 20.5249 26.719 20.4432 26.6559 20.3821C26.5938 20.3221 26.5089 20.2869 26.4199 20.2869H23.9227V18.7728C23.9227 18.0443 24.1028 17.6748 25.0891 17.6748H26.5203C26.7045 17.6748 26.8536 17.5299 26.8536 17.353V14.9479C26.8536 14.772 26.7045 14.6281 26.5203 14.6281Z" fill="white"/>
</svg>
