<svg width="46" height="45" viewBox="0 0 46 45" fill="none" xmlns="http://www.w3.org/2000/svg">
<circle cx="23.25" cy="22.5" r="22.5" fill="#507299"/>
<path fill-rule="evenodd" clip-rule="evenodd" d="M32.9701 27.9223C32.9466 27.8722 32.9251 27.8312 32.9047 27.7995C32.5672 27.2125 31.9229 26.4905 30.9707 25.6365L30.9513 25.616L30.9411 25.6068L30.9308 25.5966H30.9206C30.489 25.1998 30.2149 24.9308 30.1004 24.7948C29.8907 24.533 29.8437 24.2681 29.9582 24.0011C30.039 23.7986 30.3438 23.3722 30.8695 22.7186C31.1466 22.373 31.3655 22.0948 31.5271 21.8861C32.695 20.3858 33.2013 19.4265 33.0458 19.0092L32.9855 18.91C32.9456 18.8517 32.8403 18.7985 32.6725 18.7494C32.5038 18.7003 32.288 18.6922 32.0241 18.7249L29.1083 18.7443C29.0613 18.729 28.9938 18.73 28.9058 18.7494C28.8189 18.7689 28.7749 18.7791 28.7749 18.7791L28.7238 18.8036L28.6839 18.8333C28.6501 18.8517 28.6123 18.8865 28.5724 18.9356C28.5315 18.9836 28.4978 19.0419 28.4712 19.1074C28.1541 19.8959 27.7931 20.6302 27.3881 21.3083C27.1386 21.7143 26.9084 22.0651 26.6998 22.3617C26.4901 22.6583 26.3153 22.8772 26.1731 23.0173C26.0309 23.1574 25.9031 23.2709 25.7886 23.3558C25.674 23.4407 25.5861 23.4755 25.5257 23.4632C25.4643 23.4499 25.4071 23.4366 25.3529 23.4233C25.2588 23.365 25.1831 23.2852 25.1258 23.184C25.0675 23.0817 25.0287 22.9549 25.0092 22.8025C24.9888 22.6481 24.9765 22.5172 24.9734 22.4057C24.9704 22.2952 24.9724 22.1387 24.9786 21.9362C24.9857 21.7327 24.9888 21.5957 24.9888 21.5241C24.9888 21.2766 24.9939 21.0076 25.0041 20.7182C25.0143 20.4267 25.0225 20.1966 25.0287 20.0258C25.0358 19.856 25.0389 19.677 25.0389 19.4878C25.0389 19.2997 25.0276 19.1503 25.0041 19.043C24.9806 18.9356 24.9448 18.8312 24.8978 18.729C24.8507 18.6277 24.7812 18.55 24.6901 18.4948C24.5991 18.4385 24.4856 18.3956 24.3516 18.3618C23.9937 18.2841 23.5386 18.2422 22.9842 18.234C21.7293 18.2227 20.9224 18.3005 20.5655 18.4702C20.4233 18.5408 20.2955 18.64 20.1809 18.7637C20.0592 18.908 20.0418 18.9857 20.1298 19C20.5348 19.0573 20.8212 19.1984 20.9899 19.4193L21.0513 19.5369C21.0983 19.6218 21.1454 19.7722 21.1924 19.9869C21.2395 20.2027 21.2701 20.441 21.2834 20.7018C21.3172 21.1784 21.3172 21.5865 21.2834 21.926C21.2497 22.2645 21.218 22.5294 21.1873 22.7186C21.1576 22.9078 21.1116 23.0623 21.0513 23.1789C20.9899 23.2965 20.95 23.3681 20.9296 23.3936C20.9091 23.4202 20.8917 23.4366 20.8784 23.4437C20.7915 23.4755 20.6995 23.4908 20.6054 23.4908C20.5113 23.4908 20.3967 23.4468 20.2617 23.3558C20.1267 23.2637 19.9866 23.138 19.8414 22.9784C19.6962 22.8178 19.5325 22.5949 19.3505 22.3065C19.1684 22.0201 18.9792 21.6806 18.7829 21.2899L18.6213 21.0056C18.52 20.8225 18.382 20.5566 18.2071 20.2078C18.0312 19.8591 17.8757 19.5206 17.7407 19.1943C17.6865 19.0573 17.6057 18.953 17.4983 18.8814L17.4472 18.8517C17.4134 18.8261 17.3592 18.7975 17.2856 18.7689C17.2109 18.7382 17.1332 18.7177 17.0524 18.7044L14.2788 18.7239C13.9955 18.7239 13.8032 18.7862 13.702 18.91L13.6611 18.9693C13.6406 19.002 13.6304 19.0542 13.6304 19.1268C13.6304 19.1984 13.6508 19.2853 13.6917 19.3907C14.0967 20.3101 14.5365 21.1978 15.0121 22.0528C15.4887 22.9078 15.9018 23.5972 16.2526 24.1177C16.6034 24.6403 16.9614 25.1333 17.3255 25.5966C17.6896 26.0609 17.9309 26.3565 18.0496 26.4874C18.1672 26.6183 18.2603 26.7155 18.3278 26.7809L18.5814 27.0151C18.743 27.1726 18.9803 27.3598 19.2942 27.5786C19.6082 27.7975 19.9559 28.0123 20.3374 28.225C20.7189 28.4367 21.1628 28.6106 21.669 28.7435C22.1742 28.8775 22.6672 28.9317 23.1458 28.9051H24.3107C24.547 28.8857 24.7259 28.8141 24.8476 28.6903L24.8875 28.6412C24.9141 28.6024 24.9397 28.542 24.9632 28.4592C24.9867 28.3784 24.999 28.2884 24.999 28.1912C24.9918 27.91 25.0143 27.6574 25.0645 27.4324C25.1146 27.2074 25.1718 27.0376 25.2363 26.9231C25.3007 26.8095 25.3733 26.7134 25.4541 26.6357C25.5349 26.5569 25.5932 26.5089 25.627 26.4935C25.6607 26.4761 25.6873 26.4659 25.7078 26.4587C25.8693 26.4066 26.0596 26.4567 26.2795 26.6101C26.4983 26.7645 26.7049 26.9537 26.8972 27.1777C27.0895 27.4027 27.3206 27.6553 27.5906 27.9366C27.8606 28.2168 28.0968 28.4255 28.2993 28.5635L28.5018 28.6811C28.6368 28.7589 28.8117 28.8305 29.0275 28.8949C29.2433 28.9614 29.4325 28.9777 29.5951 28.945L32.1857 28.9051C32.4424 28.9051 32.6419 28.8642 32.783 28.7834C32.9251 28.7016 33.009 28.6126 33.0366 28.5134C33.0632 28.4173 33.0653 28.3048 33.0417 28.181C33.0172 28.0573 32.9937 27.9703 32.9701 27.9223Z" fill="white"/>
</svg>
