<svg width="46" height="45" viewBox="0 0 46 45" fill="none" xmlns="http://www.w3.org/2000/svg">
<circle cx="23.125" cy="22.5" r="22.5" fill="#FF0000"/>
<path fill-rule="evenodd" clip-rule="evenodd" d="M31.7092 18.1278C31.4961 17.1452 30.7381 16.4211 29.8259 16.3131C27.665 16.0585 25.478 16.0566 23.3016 16.0585C21.1232 16.0566 18.9362 16.0585 16.7753 16.3131C15.8631 16.4211 15.1061 17.1452 14.892 18.1278C14.5892 19.527 14.5854 21.0545 14.5854 22.4951C14.5854 23.9348 14.5854 25.4622 14.8891 26.8604C15.1022 27.843 15.8602 28.5682 16.7724 28.6752C18.9324 28.9317 21.1204 28.9327 23.2977 28.9317C25.4751 28.9327 27.6621 28.9317 29.8221 28.6752C30.7343 28.5682 31.4922 27.843 31.7063 26.8604C32.0091 25.4622 32.011 23.9348 32.011 22.4951C32.011 21.0545 32.0129 19.527 31.7092 18.1278ZM21.049 25.361C21.049 23.3176 21.049 21.2965 21.049 19.2532C22.8966 20.2753 24.7306 21.2888 26.5888 22.3157C24.7364 23.335 22.9014 24.3436 21.049 25.361Z" fill="white"/>
</svg>
