<svg width="24" height="24" viewBox="0 0 24 24" fill="none" xmlns="http://www.w3.org/2000/svg">
<path d="M11.9531 9.46875C12.4709 9.46875 12.8906 9.88843 12.8906 10.4062C12.8906 10.9241 12.4709 11.3438 11.9531 11.3438C11.4353 11.3438 11.0156 10.9241 11.0156 10.4062C11.0156 9.88843 11.4353 9.46875 11.9531 9.46875ZM15.2343 10.4062C15.2343 10.9241 15.654 11.3438 16.1718 11.3438C16.6897 11.3438 17.1093 10.9241 17.1093 10.4062C17.1093 9.88843 16.6897 9.46875 16.1718 9.46875C15.654 9.46875 15.2343 9.88843 15.2343 10.4062ZM6.79686 10.4062C6.79686 10.9241 7.21654 11.3438 7.73436 11.3438C8.25218 11.3438 8.67186 10.9241 8.67186 10.4062C8.67186 9.88843 8.25218 9.46875 7.73436 9.46875C7.21654 9.46875 6.79686 9.88843 6.79686 10.4062ZM23.1756 19.1982C24.2728 20.2954 24.2728 22.0796 23.1762 23.1762C22.6279 23.7244 21.9076 23.9987 21.1875 23.9987C20.4673 23.9987 19.747 23.7244 19.1988 23.1762L14.0524 18.0414C13.9431 17.9323 13.8625 17.798 13.8177 17.6501L12.6967 13.96C12.5973 13.6328 12.6839 13.2775 12.9226 13.0327C13.1614 12.7881 13.5144 12.6929 13.844 12.7841L17.6279 13.8322C17.7837 13.8754 17.9256 13.9579 18.0401 14.0722L23.1756 19.1982ZM15.5432 16.8801L19.0162 20.3454L20.3422 19.0193L16.8898 15.5735L14.9862 15.0461L15.5432 16.8801ZM21.8503 20.5247L21.6694 20.3439L20.3435 21.6698L20.5239 21.8496C20.8901 22.216 21.4848 22.216 21.8503 21.8503C22.216 21.4849 22.216 20.8901 21.8503 20.5247ZM12.5215 19.4275C12.3482 19.435 12.1728 19.4388 12 19.4388C10.4925 19.4388 9.04118 19.1581 7.68657 18.6046C7.45586 18.5105 7.19695 18.512 6.96733 18.6088L2.6986 20.4108L4.13689 17.0037C4.27752 16.6707 4.21398 16.2861 3.97338 16.0159C2.60064 14.4738 1.875 12.6286 1.875 10.6804C1.875 5.82513 6.4171 1.875 12 1.875C17.5829 1.875 22.125 5.82513 22.125 10.6804C22.125 11.8317 21.8422 12.9877 21.2845 14.1158C21.0551 14.58 21.2453 15.1423 21.7095 15.3717C22.1737 15.6011 22.736 15.4109 22.9654 14.9467C23.6519 13.5579 24 12.1225 24 10.6804C24 4.79114 18.6168 0 12 0C5.38329 0 0 4.79114 0 10.6804C0 12.9033 0.753661 15.0084 2.18609 16.8038L0.0737914 21.8073C-0.0745238 22.1587 0.00494386 22.565 0.274658 22.8347C0.454101 23.0142 0.693785 23.1094 0.937681 23.1094C1.06054 23.1094 1.18451 23.0852 1.30206 23.0356L7.34563 20.4844C8.81962 21.035 10.3835 21.3138 12 21.3138C12.1999 21.3138 12.403 21.3093 12.6035 21.3007C13.1208 21.278 13.5218 20.8403 13.4991 20.3231C13.4765 19.8058 13.038 19.4035 12.5215 19.4275Z" fill="white"/>
</svg>
