<svg width="11" height="17" viewBox="0 0 11 17" fill="none" xmlns="http://www.w3.org/2000/svg">
<path fill-rule="evenodd" clip-rule="evenodd" d="M9.66798 0.0492287L7.38083 0.0429688C4.81404 0.0429688 3.1557 1.65186 3.1557 4.14541V6.03653H0.86219C0.816293 6.03482 0.770444 6.04229 0.727396 6.05844C0.684348 6.07459 0.644851 6.09919 0.611216 6.13075C0.577582 6.1623 0.550425 6.20003 0.531333 6.24217C0.512241 6.28432 0.501639 6.32983 0.5 6.37614V9.11986C0.501639 9.16617 0.512241 9.21168 0.531333 9.25382C0.550425 9.29597 0.577582 9.3337 0.611216 9.36525C0.644851 9.3968 0.684348 9.4214 0.727396 9.43755C0.770444 9.4537 0.816293 9.46118 0.86219 9.45946H3.1557V16.3698C3.15734 16.4161 3.16809 16.4616 3.18719 16.5038C3.20628 16.5459 3.23343 16.5836 3.26707 16.6152C3.3007 16.6467 3.34005 16.6713 3.38309 16.6875C3.42614 16.7036 3.47199 16.7111 3.51789 16.7094H6.51034C6.55623 16.7111 6.60208 16.7036 6.64513 16.6875C6.68818 16.6713 6.72767 16.6467 6.76131 16.6152C6.79494 16.5836 6.82194 16.5459 6.84104 16.5038C6.86013 16.4616 6.87089 16.4161 6.87253 16.3698V9.45946H9.56002C9.65177 9.46171 9.74061 9.42733 9.80727 9.36368C9.87393 9.30004 9.91303 9.21241 9.91585 9.11986V6.37614C9.9153 6.33178 9.906 6.28821 9.88855 6.24749C9.8711 6.20678 9.84575 6.16967 9.8141 6.13888C9.74489 6.07413 9.6544 6.0378 9.56002 6.03653H6.87253V4.43399C6.87253 3.66477 7.06311 3.27372 8.12414 3.27372H9.66798C9.71389 3.27465 9.75955 3.26652 9.80231 3.24962C9.84506 3.23271 9.88404 3.20728 9.91709 3.17512C9.95015 3.14296 9.97666 3.10463 9.99496 3.06213C10.0133 3.01964 10.0231 2.97387 10.0238 2.92754V0.38257C10.0223 0.337076 10.0118 0.292517 9.9931 0.251111C9.97435 0.209705 9.94767 0.172537 9.91461 0.141563C9.88155 0.110588 9.84276 0.0863096 9.80045 0.0705124C9.75813 0.0547152 9.71306 0.0474281 9.66798 0.0492287Z" fill="#2098D5"/>
</svg>
