<svg width="66" height="63" viewBox="0 0 66 63" fill="none" xmlns="http://www.w3.org/2000/svg">
<path d="M16.7504 31.8367C14.4322 32.5191 12.5625 33.3117 11.7489 33.957C11.5055 34.1501 11.2149 34.2437 10.9266 34.2437C10.5362 34.2437 10.1495 34.072 9.88799 33.7423C9.43336 33.1691 9.52946 32.3359 10.1026 31.8813C11.5845 30.706 14.435 29.7565 16.0022 29.2952C16.7039 29.0881 17.4402 29.4899 17.6469 30.1918C17.8535 30.8937 17.4522 31.63 16.7504 31.8367ZM34.6882 40.5593C35.3682 44.051 34.7075 47.2383 32.7777 49.7767C31.0771 52.0135 28.5171 53.5616 25.5691 54.1356C24.7529 54.2946 23.9356 54.3732 23.13 54.3732C21.0262 54.3732 18.9986 53.8377 17.2519 52.8C14.5107 51.1713 12.7025 48.4646 12.0225 44.9728L12.0093 44.9044C11.8922 44.2965 12.2118 43.6887 12.7788 43.4405C13.7457 43.0171 14.8454 42.6037 16.0471 42.2118C16.4265 42.088 16.8415 42.142 17.1769 42.3587C21.7419 45.3101 25.8058 44.5186 28.9296 40.0702C29.1591 39.7435 29.5235 39.5377 29.9217 39.5099C31.1822 39.4223 32.3568 39.393 33.4128 39.4226C34.0323 39.44 34.5569 39.8846 34.6757 40.4929L34.6885 40.5584L34.6882 40.5593ZM32.238 42.0628C31.7525 42.0686 31.2443 42.0859 30.7162 42.1149C28.3709 45.2048 25.4975 46.7765 22.372 46.7768C20.4197 46.7769 18.3698 46.1641 16.2875 44.9247C15.7873 45.096 15.3096 45.2707 14.8576 45.4475C16.3635 50.6927 21.0946 52.3078 25.0627 51.5354C29.0312 50.7628 32.8095 47.491 32.238 42.0628ZM25.3762 30.1569C27.7814 29.9197 29.8121 29.9529 30.8079 30.2457C30.9327 30.2825 31.0584 30.2998 31.1822 30.2998C31.7547 30.2998 32.2826 29.9257 32.4523 29.3488C32.6587 28.6469 32.2572 27.9107 31.5553 27.7041C29.8321 27.1973 27.1023 27.3245 25.1158 27.5207C24.3877 27.5924 23.8558 28.241 23.9277 28.9689C23.9996 29.697 24.6493 30.2289 25.3762 30.1569ZM40.9661 13.2569C41.0085 13.2608 41.0504 13.2629 41.0919 13.2629C41.7673 13.2629 42.3444 12.7485 42.4091 12.0625C42.4777 11.3341 41.943 10.688 41.2147 10.6194C38.8086 10.3926 36.8217 9.97201 35.8999 9.49413C35.2502 9.15724 34.4508 9.41097 34.1144 10.0606C33.7776 10.71 34.0312 11.5094 34.6807 11.8462C36.3597 12.7164 39.3395 13.1037 40.9661 13.2569ZM50.1251 13.2629C50.1667 13.2629 50.2087 13.2608 50.2509 13.2569C52.2385 13.0697 54.9425 12.6727 56.5367 11.8459C57.1862 11.5091 57.4395 10.7095 57.1027 10.0602C56.7658 9.41097 55.9665 9.15768 55.317 9.49413C54.3958 9.97187 52.4091 10.3925 50.0023 10.6194C49.2741 10.688 48.7392 11.334 48.8078 12.0625C48.8724 12.7485 49.4495 13.2629 50.1251 13.2629ZM42.9193 39.105C44.7222 48.3642 38.1628 58.0008 27.3225 62.0184C27.1875 62.0685 27.0453 62.096 26.9015 62.1004C26.6088 62.1091 26.3153 62.1135 26.0251 62.1135C14.8574 62.1135 5.60395 55.7382 3.84681 46.7135L0.295714 28.4773C-0.0573638 26.6644 1.71892 24.9959 5.88595 23.2261C9.27058 21.7886 13.8655 20.4652 18.8244 19.4997C23.7834 18.534 28.5389 18.0342 32.2158 18.099C36.7422 18.1757 39.0149 19.0559 39.368 20.8687L42.9193 39.105ZM40.3189 39.6113L36.792 21.4997C36.4604 21.2462 35.0076 20.7261 31.35 20.7436C27.9747 20.7661 23.7062 21.2478 19.3309 22.0999C14.9556 22.9519 10.8181 24.1071 7.68107 25.3526C4.28289 26.7019 3.1327 27.7357 2.92033 28.0954L6.44713 46.2072C7.9897 54.1302 16.4509 59.6771 26.6054 59.4578C36.102 55.8511 41.8616 47.5344 40.3189 39.6113ZM59.0209 1.46017C55.4242 0.69617 50.6609 0.275391 45.6088 0.275391C40.5565 0.275391 35.7932 0.696023 32.1965 1.46017C27.7681 2.40078 25.7056 3.69917 25.7056 5.54625V13.6719C25.7056 14.4035 26.2985 14.9965 27.0302 14.9965C27.7618 14.9965 28.3548 14.4035 28.3548 13.6719V5.67311C28.6317 5.36066 29.9583 4.56575 33.5519 3.8908C36.8691 3.2678 41.1511 2.92473 45.6088 2.92473C50.0665 2.92473 54.3483 3.2678 57.6657 3.8908C61.2593 4.56575 62.5858 5.36066 62.8628 5.67311V24.1246C62.8628 31.5628 56.8144 38.1461 47.812 40.5066C47.1044 40.6922 46.6811 41.4163 46.8667 42.1238C47.0227 42.7188 47.5595 43.1128 48.1471 43.1128C48.2583 43.1128 48.3713 43.0987 48.484 43.0692C53.3441 41.7948 57.5416 39.3582 60.6226 36.0227C63.8214 32.5597 65.5121 28.4455 65.5121 24.1246V5.54625C65.5118 3.69917 63.4493 2.40078 59.0209 1.46017ZM51.8049 32.2739C51.859 32.2739 51.9133 32.2707 51.9674 32.2639C53.2218 32.1088 54.3802 31.9132 55.4105 31.6824C56.0154 31.5469 56.4454 31.0098 56.4454 30.3899V30.3232C56.4454 26.8469 55.2352 23.8897 52.9457 21.7715C50.6006 19.6017 47.3038 18.5084 43.9034 18.7741C43.174 18.8309 42.6289 19.4682 42.6857 20.1974C42.7425 20.9269 43.3789 21.4739 44.109 21.4152C46.7777 21.2072 49.3418 22.0461 51.1468 23.7162C52.6615 25.1174 53.5522 27.0391 53.753 29.3157C53.2757 29.4029 52.7737 29.483 52.25 29.5554C50.1408 27.6693 47.9115 26.621 45.6155 26.4378C44.887 26.3804 44.248 26.9237 44.1897 27.6529C44.1316 28.3821 44.6755 29.0204 45.4048 29.0787C47.247 29.2257 49.0913 30.1762 50.8867 31.9039C51.1348 32.1428 51.4647 32.2739 51.8049 32.2739Z" fill="#2098D5"/>
</svg>
