<svg width="65" height="47" viewBox="0 0 65 47" fill="none" xmlns="http://www.w3.org/2000/svg">
<path d="M62.8981 6.23623H60.0896V3.57892C60.0896 2.98375 59.644 2.48292 59.0531 2.41346L42.7813 0.502459C39.1322 0.0737599 35.4795 0.683953 32.1782 2.26764C28.8767 0.683953 25.2247 0.0736035 21.5751 0.502459L5.30328 2.41346C4.71234 2.48292 4.26674 2.98375 4.26674 3.57892V6.23623H1.4586C0.810391 6.23623 0.285156 6.76162 0.285156 7.40968V45.8099C0.285156 46.4579 0.810391 46.9833 1.4586 46.9833H62.8981C63.5463 46.9833 64.0715 46.4579 64.0715 45.8099V7.40968C64.0715 6.76162 63.5461 6.23623 62.8981 6.23623ZM42.5075 2.83339L57.7426 4.62267V39.5221L42.7813 37.765C39.5593 37.3865 36.3348 37.8193 33.3516 39.0156V4.31006C36.2103 2.97468 39.3606 2.46384 42.5075 2.83339ZM21.849 2.83339C24.9958 2.46368 28.1464 2.97468 31.0049 4.31006V39.0159C28.7231 38.1009 26.3005 37.6317 23.8456 37.6317C23.091 37.6317 22.333 37.676 21.5752 37.7649L6.61379 39.5219V4.62267L21.849 2.83339ZM61.7246 44.6364H2.63205V8.58313H4.2669V40.8413C4.2669 41.1765 4.41006 41.4955 4.66055 41.7181C4.91088 41.9408 5.24461 42.0459 5.57724 42.0068L21.849 40.0958C25.2298 39.6985 28.6156 40.3167 31.6382 41.8832C31.9768 42.0587 32.3795 42.0587 32.7181 41.8832C35.7406 40.3167 39.1251 39.6985 42.5073 40.0958L58.779 42.0068C58.8247 42.0121 58.8703 42.0148 58.9159 42.0148C59.2017 42.0148 59.4797 41.9103 59.6957 41.7181C59.9462 41.4955 60.0893 41.1765 60.0893 40.8413V8.58313H61.7243L61.7246 44.6364Z" fill="#2098D5"/>
<path d="M36.0543 9.44407C38.1574 8.87268 40.3219 8.71199 42.4859 8.96593L54.703 10.4003C54.7497 10.4058 54.7958 10.4085 54.8415 10.4085C55.4284 10.4085 55.9353 9.96899 56.0054 9.37178C56.0808 8.72811 55.6204 8.14514 54.9768 8.06957L42.7595 6.63515C40.2953 6.34586 37.8325 6.52907 35.4391 7.17947C34.8136 7.34939 34.4445 7.99416 34.6144 8.61952C34.7843 9.24489 35.4296 9.61383 36.0543 9.44407Z" fill="#2098D5"/>
<path d="M9.47151 10.4082C9.51719 10.4082 9.56351 10.4055 9.60997 10.4L21.826 8.96577C23.9872 8.71402 26.1769 8.87846 28.2579 9.44532C28.883 9.61539 29.5282 9.24693 29.6984 8.6214C29.8688 7.99603 29.4999 7.35111 28.8745 7.18088C26.5051 6.53548 24.0146 6.34805 21.5532 6.63484L9.33601 8.06926C8.6925 8.14483 8.23188 8.72779 8.30745 9.37147C8.3777 9.96867 8.88463 10.4082 9.47151 10.4082Z" fill="#2098D5"/>
<path d="M36.0543 14.8263C38.1574 14.2549 40.3216 14.0942 42.4859 14.3482L54.703 15.7826C54.7497 15.7881 54.7958 15.7907 54.8415 15.7907C55.4284 15.7907 55.9353 15.3512 56.0054 14.754C56.0808 14.1103 55.6204 13.5274 54.9768 13.4518L42.7595 12.0174C40.2956 11.7282 37.8326 11.9113 35.4391 12.5617C34.8136 12.7316 34.4445 13.3764 34.6144 14.0018C34.7843 14.627 35.4296 14.9962 36.0543 14.8263Z" fill="#2098D5"/>
<path d="M9.47151 15.7905C9.51719 15.7905 9.56351 15.7878 9.60997 15.7823L21.826 14.3481C23.9858 14.0965 26.1767 14.2608 28.2579 14.8276C28.883 14.9977 29.5282 14.6292 29.6984 14.0037C29.8688 13.3783 29.4999 12.7334 28.8745 12.5632C26.5048 11.9178 24.0135 11.7303 21.5532 12.0171L9.33601 13.4516C8.6925 13.5271 8.23188 14.1101 8.30745 14.7538C8.3777 15.351 8.88463 15.7905 9.47151 15.7905Z" fill="#2098D5"/>
<path d="M36.0543 20.2086C38.1574 19.6372 40.3216 19.4765 42.4859 19.7304L54.703 21.1648C54.7497 21.1703 54.7958 21.173 54.8415 21.173C55.4284 21.173 55.9353 20.7335 56.0054 20.1363C56.0808 19.4926 55.6204 18.9096 54.9768 18.8341L42.7595 17.3996C40.2956 17.1105 37.8326 17.2937 35.4391 17.944C34.8136 18.1139 34.4445 18.7587 34.6144 19.384C34.7843 20.0094 35.4296 20.3785 36.0543 20.2086Z" fill="#2098D5"/>
<path d="M9.47151 21.1728C9.51719 21.1728 9.56351 21.1702 9.60997 21.1647L21.826 19.7304C23.9856 19.4788 26.1767 19.6431 28.2579 20.21C28.883 20.3802 29.5282 20.0116 29.6984 19.386C29.8688 18.7607 29.4999 18.1158 28.8745 17.9455C26.5049 17.3001 24.0136 17.1127 21.5532 17.3993L9.33601 18.8337C8.6925 18.9093 8.23188 19.4923 8.30745 20.136C8.3777 20.7333 8.88463 21.1728 9.47151 21.1728Z" fill="#2098D5"/>
<path d="M36.0543 25.5908C38.1571 25.0194 40.3213 24.8586 42.4859 25.1127L54.703 26.5471C54.7497 26.5526 54.7958 26.5553 54.8415 26.5553C55.4284 26.5553 55.9353 26.1158 56.0054 25.5185C56.0808 24.8749 55.6204 24.2919 54.9768 24.2163L42.7595 22.7819C40.2956 22.4929 37.8328 22.6758 35.4391 23.3262C34.8136 23.4961 34.4445 24.1409 34.6144 24.7663C34.7843 25.3917 35.4296 25.7609 36.0543 25.5908Z" fill="#2098D5"/>
<path d="M9.47151 26.555C9.51719 26.555 9.56351 26.5524 9.60997 26.5469L21.826 25.1127C23.9852 24.8609 26.1764 25.0252 28.2579 25.5922C28.883 25.7623 29.5282 25.3938 29.6984 24.7683C29.8688 24.1429 29.4999 23.498 28.8745 23.3278C26.5049 22.6824 24.013 22.4949 21.5532 22.7817L9.33601 24.2161C8.6925 24.2917 8.23188 24.8747 8.30745 25.5184C8.3777 26.1156 8.88463 26.555 9.47151 26.555Z" fill="#2098D5"/>
<path d="M54.977 29.5987L42.7597 28.1642C40.2953 27.8751 37.8325 28.0583 35.4393 28.7086C34.8138 28.8785 34.4447 29.5233 34.6146 30.1486C34.7845 30.7742 35.4297 31.1434 36.0545 30.9733C38.1576 30.4021 40.3221 30.2414 42.4861 30.4952L54.7032 31.9296C54.7498 31.9351 54.796 31.9377 54.8417 31.9377C55.4286 31.9377 55.9355 31.4982 56.0056 30.901C56.081 30.2574 55.6205 29.6742 54.977 29.5987Z" fill="#2098D5"/>
<path d="M9.47151 31.9374C9.51719 31.9374 9.56351 31.9347 9.60997 31.9292L21.826 30.495C23.9858 30.2434 26.1767 30.4077 28.2579 30.9745C28.883 31.1447 29.5282 30.7761 29.6984 30.1506C29.8688 29.5252 29.4999 28.8803 28.8745 28.7101C26.5048 28.0647 24.0135 27.8772 21.5532 28.164L9.33601 29.5984C8.6925 29.674 8.23188 30.257 8.30745 30.9007C8.3777 31.4979 8.88463 31.9374 9.47151 31.9374Z" fill="#2098D5"/>
</svg>
