<svg width="60" height="54" viewBox="0 0 60 54" fill="none" xmlns="http://www.w3.org/2000/svg">
<path d="M38.5789 7.57866C38.5789 10.3155 40.7895 12.526 43.5263 12.526C46.2631 12.526 48.4737 10.3155 48.4737 7.57866C48.421 4.84182 46.2105 2.63129 43.5263 2.63129C40.7895 2.63129 38.5789 4.84182 38.5789 7.57866Z" fill="#FFCC00"/>
<path d="M41.3157 21.3158L59.3683 14.5263L38.5788 14.6316L37.2631 12.2632L30.6841 0L31.5262 11.6842L32.5788 27L33.5788 41L34.5262 54L39.8946 43.1053L42.2631 38.3158L58.0525 43.1053L45.2104 26.3684L41.3157 21.3158Z" fill="#FFCC00"/>
<path d="M20.7894 7.57866C20.7894 10.3155 18.5789 12.526 15.8421 12.526C13.1052 12.526 10.8947 10.3155 10.8947 7.57866C10.8947 4.84182 13.1052 2.63129 15.8421 2.63129C18.5789 2.63129 20.7894 4.84182 20.7894 7.57866Z" fill="#FFCC00"/>
<path d="M22.0526 12.2632L20.7895 14.6316L0 14.5263L18 21.3158L14.1579 26.3684L1.26316 43.1053L17.0526 38.3158L19.4211 43.1053L24.8421 54L25.7368 41L27.8421 11.6842L28.6316 0L22.0526 12.2632Z" fill="#FFCC00"/>
</svg>
