<svg width="71" height="60" viewBox="0 0 71 60" fill="none" xmlns="http://www.w3.org/2000/svg">
<path d="M29.707 44.4421H33.2031C33.8467 44.4421 34.3684 43.9204 34.3684 43.2768C34.3684 42.6331 33.8467 42.1114 33.2031 42.1114H29.707C27.7771 42.1135 26.213 43.6776 26.211 45.6075V50.2689C26.213 52.1988 27.7771 53.7629 29.707 53.7649H33.2031C33.8467 53.7649 34.3684 53.2433 34.3684 52.5996V47.9383C34.3684 47.2946 33.8467 46.773 33.2031 46.773H30.8723C30.2287 46.773 29.707 47.2946 29.707 47.9383C29.707 48.5819 30.2287 49.1036 30.8723 49.1036H32.0377V51.4343H29.7069C29.0637 51.4335 28.5424 50.9122 28.5416 50.269V45.6074C28.5426 44.9642 29.0638 44.4429 29.707 44.4421Z" fill="#2098D5"/>
<path d="M44.5572 44.1799C43.9966 42.9171 42.7422 42.1055 41.3605 42.1115H37.8645C37.2208 42.1115 36.6992 42.6332 36.6992 43.2768V52.5997C36.6992 53.2433 37.221 53.765 37.8645 53.765H41.3605C42.7422 53.771 43.9966 52.9594 44.5572 51.6966C45.1178 50.4338 44.8786 48.959 43.9473 47.9382C44.8786 46.9175 45.118 45.4427 44.5572 44.1799ZM41.3607 51.4344H39.0299V49.1036H41.3607C42.0043 49.1036 42.526 49.6254 42.526 50.2689C42.526 50.9125 42.0043 51.4344 41.3607 51.4344ZM41.3607 46.7729H39.0299V44.4421H41.3607C42.0043 44.4421 42.526 44.9638 42.526 45.6074C42.526 46.251 42.0043 46.7729 41.3607 46.7729Z" fill="#2098D5"/>
<path d="M69.2184 0.976579C69.1851 0.945579 69.15 0.916627 69.1134 0.88986C68.5088 0.418711 67.765 0.161559 66.9984 0.158691H4.0693C3.30236 0.161559 2.55794 0.419121 1.95323 0.890953C1.91745 0.917173 1.88317 0.945442 1.85067 0.975623C1.04562 1.63264 0.576929 2.61563 0.573242 3.65475V45.6075C0.575291 47.5375 2.13937 49.1015 4.0693 49.1036H15.8198C16.7846 55.0711 25.0948 59.5918 35.5339 59.5918C45.9729 59.5918 54.2833 55.0711 55.248 49.1036H66.9984C68.9284 49.1015 70.4924 47.5375 70.4945 45.6075V3.65475C70.4908 2.61618 70.0227 1.63373 69.2184 0.976579ZM43.6913 2.48945H65.5821L45.3095 16.4737H43.6913V2.48945ZM27.3764 2.48945V16.4737H25.7583L5.48562 2.48945H27.3764ZM2.904 3.65475C2.904 3.61911 2.9212 3.58907 2.92434 3.55438L21.6531 16.4737H2.904V3.65475ZM2.92434 45.7079C2.9212 45.6731 2.904 45.6432 2.904 45.6075V32.7886H21.6531L2.92434 45.7079ZM5.48562 46.7728L25.7583 32.7886H27.3764V37.2914C21.0182 38.9418 16.5139 42.4788 15.8198 46.7728H5.48562ZM35.5339 57.261C26.0586 57.261 18.0536 52.9917 18.0536 47.9381C18.0536 42.8845 26.0586 38.6154 35.5339 38.6154C45.0092 38.6154 53.0142 42.8847 53.0142 47.9383C53.0142 52.9919 45.0092 57.261 35.5339 57.261ZM55.248 46.7728C54.5538 42.4788 50.0495 38.9418 43.6913 37.2914V32.7886H45.3095L65.5821 46.7728H55.248ZM68.1637 45.6075C68.1637 45.6432 68.1465 45.6732 68.1434 45.7079L49.4146 32.7886H68.1637V45.6075ZM68.1637 30.458H42.526C41.8824 30.458 41.3607 30.9796 41.3607 31.6233V36.7815C37.5044 36.1191 33.5634 36.1191 29.7072 36.7815V31.6233C29.7072 30.9796 29.1854 30.458 28.5419 30.458H2.904V18.8045H28.5417C29.1854 18.8045 29.7071 18.2828 29.7071 17.6391V2.48945H41.3605V17.639C41.3605 18.2826 41.8822 18.8043 42.5259 18.8043H68.1636L68.1637 30.458ZM68.1637 16.4737H49.4146L68.1434 3.55438C68.1465 3.5892 68.1637 3.61911 68.1637 3.65475V16.4737Z" fill="#2098D5"/>
</svg>
