<svg width="18" height="18" viewBox="0 0 18 18" fill="none" xmlns="http://www.w3.org/2000/svg">
<path fill-rule="evenodd" clip-rule="evenodd" d="M13.0288 17.8118H5.09553C3.79947 17.8112 2.55663 17.2961 1.64018 16.3797C0.723732 15.4632 0.208633 14.2205 0.208008 12.9245V4.99089C0.208633 3.69484 0.723732 2.45214 1.64018 1.53569C2.55663 0.61924 3.79947 0.104141 5.09553 0.103516H13.0288C14.3249 0.104141 15.5677 0.61924 16.4842 1.53569C17.4006 2.45214 17.9157 3.69484 17.9163 4.99089V12.9245C17.9157 14.2205 17.4006 15.4632 16.4842 16.3797C15.5677 17.2961 14.3249 17.8112 13.0288 17.8118ZM16.3463 12.9245V4.99089C16.3455 4.11131 15.9956 3.26816 15.3737 2.64621C14.7517 2.02425 13.9084 1.67453 13.0288 1.67375H5.09553C4.21595 1.67453 3.37266 2.02425 2.7507 2.64621C2.12874 3.26816 1.77888 4.11131 1.77809 4.99089V12.9245C1.77888 13.8041 2.12874 14.6472 2.7507 15.2692C3.37266 15.8911 4.21595 16.2408 5.09553 16.2416H13.0288C13.9084 16.2408 14.7517 15.8911 15.3737 15.2692C15.9956 14.6472 16.3455 13.8041 16.3463 12.9245ZM13.8139 5.36875C13.5456 5.36917 13.2854 5.2765 13.0778 5.10647C12.8702 4.93643 12.7282 4.69951 12.6758 4.43635C12.6233 4.17319 12.6637 3.90023 12.7903 3.66363C12.9169 3.42703 13.1218 3.2415 13.3698 3.13907C13.6178 3.03663 13.8936 3.02357 14.1503 3.10188C14.4069 3.1802 14.6285 3.34507 14.777 3.56852C14.9256 3.79196 14.992 4.06015 14.965 4.32711C14.9379 4.59408 14.8189 4.84333 14.6285 5.03239C14.4121 5.2479 14.1193 5.36878 13.8139 5.36875ZM9.06217 13.5205C8.15973 13.5205 7.27748 13.2529 6.52712 12.7515C5.77677 12.2502 5.192 11.5375 4.84665 10.7037C4.50129 9.86998 4.4109 8.95276 4.58696 8.06765C4.76302 7.18255 5.1977 6.36946 5.83582 5.73133C6.47395 5.0932 7.2869 4.65852 8.172 4.48247C9.05711 4.30641 9.97461 4.3968 10.8084 4.74215C11.6421 5.0875 12.3547 5.67242 12.856 6.42277C13.3574 7.17313 13.625 8.05524 13.625 8.95768C13.6231 10.1672 13.1418 11.3267 12.2865 12.182C11.4312 13.0373 10.2717 13.5186 9.06217 13.5205ZM9.06217 5.96508C8.47027 5.96508 7.89172 6.14062 7.39957 6.46947C6.90742 6.79831 6.52378 7.26544 6.29727 7.81229C6.07075 8.35914 6.01145 8.96109 6.12693 9.54162C6.2424 10.1221 6.52751 10.6553 6.94605 11.0738C7.36459 11.4923 7.89785 11.7775 8.47838 11.8929C9.05891 12.0084 9.66058 11.9491 10.2074 11.7226C10.7543 11.4961 11.2217 11.1126 11.5505 10.6204C11.8794 10.1283 12.0549 9.54958 12.0549 8.95768C12.0529 8.16459 11.7369 7.40467 11.1761 6.84387C10.6153 6.28306 9.85527 5.9671 9.06217 5.96508Z" fill="#2098D5"/>
</svg>
