<svg width="16" height="18" viewBox="0 0 16 18" fill="none" xmlns="http://www.w3.org/2000/svg">
<path fill-rule="evenodd" clip-rule="evenodd" d="M7.61539 0C9.64935 0 11.5617 0.775497 13 2.18353C14.4385 3.59184 15.2308 5.46432 15.2308 7.45601C15.2308 9.44769 14.4385 11.3202 13 12.7285L7.61539 18L2.2308 12.7285C0.792262 11.3202 0 9.44769 0 7.45601C0 5.46432 0.792262 3.59184 2.2308 2.18353C3.66906 0.775497 5.58142 0 7.61539 0ZM7.62141 10.4062C9.51307 10.4062 11.0466 8.90308 11.0466 7.04883C11.0466 5.19458 9.51307 3.69141 7.62141 3.69141C5.72975 3.69141 4.19626 5.19458 4.19626 7.04883C4.19626 8.90308 5.72975 10.4062 7.62141 10.4062Z" fill="white"/>
</svg>
