<svg width="27" height="24" viewBox="0 0 27 24" fill="none" xmlns="http://www.w3.org/2000/svg">
<path d="M20.8756 14.8671C20.3525 14.3555 19.7215 14.082 19.0528 14.082C18.3895 14.082 17.7531 14.3505 17.2084 14.8621L15.5042 16.4576C15.364 16.3867 15.2238 16.3209 15.089 16.255C14.8948 16.1639 14.7115 16.0777 14.5551 15.9866C12.9588 15.0343 11.5081 13.7933 10.1167 12.1875C9.44256 11.3872 8.98956 10.7135 8.66059 10.0297C9.10281 9.64979 9.51267 9.25469 9.91175 8.87479C10.0628 8.73296 10.2138 8.58607 10.3648 8.44424C11.4973 7.38051 11.4973 6.00273 10.3648 4.939L8.89248 3.55616C8.7253 3.39913 8.55273 3.23704 8.39094 3.07495C8.06736 2.7609 7.72761 2.43671 7.37707 2.13279C6.85395 1.64652 6.22837 1.38818 5.57043 1.38818C4.91249 1.38818 4.27612 1.64652 3.73683 2.13279C3.73144 2.13786 3.73144 2.13786 3.72604 2.14292L1.89244 3.88034C1.20214 4.52871 0.80846 5.31891 0.722173 6.23574C0.592742 7.71482 1.05654 9.0926 1.41247 9.99424C2.28613 12.2078 3.59122 14.2593 5.53807 16.4576C7.90018 19.1068 10.7423 21.1988 13.9888 22.6728C15.2292 23.225 16.8848 23.8784 18.7346 23.9898C18.8479 23.9949 18.9665 24 19.0744 24C20.3201 24 21.3664 23.5795 22.1861 22.7438C22.1915 22.7336 22.2023 22.7286 22.2077 22.7184C22.4881 22.3993 22.8117 22.1106 23.1514 21.8016C23.3833 21.5939 23.6206 21.3761 23.8525 21.1482C24.3864 20.6264 24.6668 20.0186 24.6668 19.3956C24.6668 18.7674 24.381 18.1647 23.8363 17.6581L20.8756 14.8671ZM22.8063 20.2009C22.8009 20.2009 22.8009 20.206 22.8063 20.2009C22.596 20.4137 22.3802 20.6062 22.1483 20.8189C21.7978 21.133 21.4419 21.4622 21.1075 21.832C20.5628 22.3791 19.9211 22.6374 19.0798 22.6374C18.9989 22.6374 18.9126 22.6374 18.8317 22.6323C17.23 22.5361 15.7415 21.9485 14.6252 21.447C11.5728 20.0591 8.89248 18.0887 6.6652 15.5915C4.8262 13.5096 3.59661 11.5848 2.78228 9.51809C2.28073 8.25682 2.09737 7.27414 2.17827 6.34718C2.2322 5.75453 2.47488 5.26319 2.92249 4.84276L4.76149 3.11547C5.02574 2.88247 5.30618 2.75583 5.58122 2.75583C5.92097 2.75583 6.19601 2.94832 6.36859 3.11041C6.37398 3.11547 6.37937 3.12054 6.38476 3.1256C6.71373 3.41433 7.02653 3.71319 7.35549 4.0323C7.52268 4.1944 7.69525 4.35649 7.86782 4.52364L9.3401 5.90649C9.91175 6.44342 9.91175 6.93982 9.3401 7.47675C9.1837 7.62365 9.0327 7.77054 8.87631 7.91237C8.4233 8.34799 7.99186 8.75322 7.52268 9.14832C7.51189 9.15845 7.5011 9.16352 7.49571 9.17365C7.03192 9.60927 7.11821 10.0348 7.21528 10.3235C7.22067 10.3387 7.22606 10.3539 7.23146 10.3691C7.61436 11.2403 8.15365 12.0609 8.97338 13.0385L8.97877 13.0436C10.4672 14.7658 12.0366 16.1081 13.7677 17.1364C13.9888 17.2681 14.2153 17.3745 14.431 17.4758C14.6252 17.567 14.8085 17.6531 14.9649 17.7442C14.9865 17.7544 15.0081 17.7696 15.0297 17.7797C15.213 17.8658 15.3856 17.9063 15.5636 17.9063C16.0112 17.9063 16.2916 17.6429 16.3833 17.5568L18.2277 15.8245C18.411 15.6522 18.7023 15.4446 19.042 15.4446C19.3764 15.4446 19.6514 15.6421 19.8186 15.8143C19.824 15.8194 19.824 15.8194 19.8294 15.8245L22.8009 18.6155C23.3564 19.1322 23.3564 19.664 22.8063 20.2009Z" fill="black"/>
<path d="M14.4904 5.70908C15.9033 5.93196 17.1869 6.56006 18.2115 7.52248C19.2362 8.4849 19.8995 9.69046 20.1422 11.0176C20.2015 11.3519 20.5089 11.5849 20.8595 11.5849C20.9026 11.5849 20.9404 11.5798 20.9835 11.5748C21.3826 11.514 21.6468 11.1594 21.5821 10.7846C21.2909 9.17886 20.482 7.71497 19.247 6.555C18.012 5.39503 16.4534 4.63522 14.7439 4.36169C14.3448 4.30091 13.9727 4.54911 13.9026 4.91888C13.8325 5.28866 14.0913 5.6483 14.4904 5.70908Z" fill="black"/>
<path d="M26.2038 10.5869C25.7239 7.94278 24.3972 5.53674 22.3587 3.62203C20.3201 1.70732 17.7585 0.461243 14.9434 0.0104253C14.5497 -0.0554245 14.1776 0.197844 14.1075 0.567615C14.0427 0.942452 14.307 1.29196 14.7061 1.35781C17.2192 1.75798 19.5112 2.87742 21.334 4.58445C23.1568 6.29654 24.3433 8.44932 24.7693 10.8098C24.8286 11.1441 25.136 11.3771 25.4866 11.3771C25.5297 11.3771 25.5675 11.372 25.6106 11.367C26.0043 11.3113 26.2739 10.9567 26.2038 10.5869Z" fill="black"/>
</svg>
