<svg width="65" height="65" viewBox="0 0 65 65" fill="none" xmlns="http://www.w3.org/2000/svg">
<path d="M31.9122 54.9438C31.6761 54.7077 31.3486 54.5717 31.0147 54.5717C30.6808 54.5717 30.3532 54.7075 30.1171 54.9438C29.881 55.1798 29.7451 55.5073 29.7451 55.8412C29.7451 56.1765 29.881 56.5027 30.1171 56.7388C30.3532 56.9762 30.6808 57.1108 31.0147 57.1108C31.3486 57.1108 31.6761 56.9762 31.9122 56.7388C32.1484 56.5027 32.2842 56.1752 32.2842 55.8412C32.2842 55.5073 32.1482 55.1798 31.9122 54.9438Z" fill="#2098D5"/>
<path d="M37.9567 43.2324V33.8909C37.9567 33.4692 37.7472 33.0749 37.3977 32.8389C37.0482 32.6029 36.6042 32.5559 36.2128 32.7133L14.3372 41.5235H7.29129C3.27094 41.5235 0 44.7944 0 48.815C0 52.8356 3.27094 56.1066 7.29154 56.1066H8.13058V63.7304C8.13058 64.4314 8.69895 64.9999 9.40011 64.9999H14.5828C15.284 64.9999 15.8524 64.4314 15.8524 63.7304V56.719L36.2135 64.9082C36.3662 64.9697 36.527 65 36.687 65C36.9368 65 37.1849 64.9262 37.3979 64.7824C37.7473 64.5464 37.9567 64.1521 37.9567 63.7305V54.3891C40.5026 53.8099 42.4091 51.5295 42.4091 48.8108C42.4091 46.0921 40.5026 43.8117 37.9567 43.2324ZM13.3132 62.4608H10.6696V56.1064H13.3133L13.3132 62.4608ZM13.3134 53.5674H7.29154C4.67098 53.5674 2.53906 51.4355 2.53906 48.815C2.53906 46.1945 4.67098 44.0625 7.29154 44.0625H13.3139L13.3134 53.5674ZM35.4177 61.8513L15.853 53.9824V43.6502L29.7451 38.0554V50.6542C29.7451 51.3552 30.3134 51.9237 31.0146 51.9237C31.7158 51.9237 32.2841 51.3552 32.2841 50.6542V37.0328L35.4177 35.7707V61.8513ZM37.9567 51.7287V45.8927C39.0816 46.384 39.8701 47.5068 39.8701 48.8107C39.8701 50.1146 39.0817 51.2374 37.9567 51.7287Z" fill="#2098D5"/>
<path d="M54.5203 47.5787H47.3325C46.6313 47.5787 46.063 48.1472 46.063 48.8482C46.063 49.5492 46.6313 50.1177 47.3325 50.1177H54.5203C55.2215 50.1177 55.7899 49.5492 55.7899 48.8482C55.7899 48.1472 55.2215 47.5787 54.5203 47.5787Z" fill="#2098D5"/>
<path d="M48.6254 38.2761C48.1297 37.7805 47.3258 37.7805 46.8299 38.2761L44.3505 40.7555C43.8548 41.2513 43.8548 42.0552 44.3505 42.551C44.5986 42.7988 44.9235 42.9229 45.2483 42.9229C45.5732 42.9229 45.8982 42.7988 46.146 42.551L48.6254 40.0716C49.1212 39.5759 49.1212 38.772 48.6254 38.2761Z" fill="#2098D5"/>
<path d="M48.7186 57.5067L46.1563 54.9443C45.6605 54.4486 44.8567 54.4486 44.3608 54.9443C43.865 55.44 43.865 56.2439 44.3608 56.7398L46.9232 59.3022C47.1712 59.55 47.496 59.674 47.8209 59.674C48.1458 59.674 48.4708 59.55 48.7186 59.3022C49.2143 58.8064 49.2143 58.0026 48.7186 57.5067Z" fill="#2098D5"/>
<path d="M59.9218 0H36.3086C33.5085 0 31.2304 2.27804 31.2304 5.07812V5.58593H9.90235C8.22225 5.58593 6.85547 6.95283 6.85547 8.6328V28.6914C6.85547 30.3713 8.22225 31.7382 9.90235 31.7382H11.2142V35.6315C11.2142 36.145 11.5235 36.6079 11.9978 36.8044C12.1549 36.8694 12.3198 36.901 12.4834 36.901C12.8138 36.901 13.1385 36.7721 13.3814 36.5292L18.1723 31.7382H43.39C45.0701 31.7382 46.4369 30.3713 46.4369 28.6914V24.8828H59.9218C62.7219 24.8828 64.9999 22.6047 64.9999 19.8047V5.07812C64.9998 2.27804 62.7219 0 59.9218 0ZM43.8978 28.6914C43.8978 28.9714 43.6701 29.1992 43.39 29.1992H17.6465C17.3098 29.1992 16.9868 29.333 16.7488 29.571L13.7533 32.5666V30.4687C13.7533 29.7677 13.185 29.1992 12.4838 29.1992H9.90235C9.62229 29.1992 9.39453 28.9714 9.39453 28.6914V8.6328C9.39453 8.35275 9.62229 8.12499 9.90235 8.12499H31.2304V19.8047C31.2304 22.6047 33.5085 24.8828 36.3086 24.8828H43.8978V28.6914ZM62.4609 19.8047C62.4609 21.2047 61.3219 22.3437 59.9218 22.3437H36.3086C34.9085 22.3437 33.7695 21.2047 33.7695 19.8047V5.07812C33.7695 3.67808 34.9085 2.53906 36.3086 2.53906H59.9218C61.3219 2.53906 62.4609 3.67808 62.4609 5.07812V19.8047Z" fill="#2098D5"/>
<path d="M53.2155 11.3421L44.5268 6.32569C44.134 6.09882 43.6501 6.09882 43.2573 6.32569C42.8645 6.55243 42.6225 6.97162 42.6225 7.4251V17.4578C42.6225 17.9113 42.8645 18.3305 43.2573 18.5572C43.4537 18.6707 43.6728 18.7273 43.8921 18.7273C44.1113 18.7273 44.3304 18.6707 44.5268 18.5572L53.2155 13.5408C53.6083 13.3141 53.8503 12.8949 53.8503 12.4414C53.8503 11.9879 53.6084 11.5688 53.2155 11.3421ZM45.1616 15.259V9.62405L50.0417 12.4415L45.1616 15.259Z" fill="#2098D5"/>
<path d="M27.2328 13.3301H14.5375C13.8364 13.3301 13.268 13.8986 13.268 14.5996C13.268 15.3007 13.8364 15.8691 14.5375 15.8691H27.2328C27.934 15.8691 28.5023 15.3007 28.5023 14.5996C28.5023 13.8986 27.934 13.3301 27.2328 13.3301Z" fill="#2098D5"/>
<path d="M28.1303 20.8114C27.8942 20.5752 27.5666 20.4395 27.2327 20.4395C26.8988 20.4395 26.5713 20.5752 26.3352 20.8114C26.099 21.0476 25.9632 21.3751 25.9632 21.709C25.9632 22.0429 26.099 22.3704 26.3352 22.6064C26.5713 22.8426 26.8988 22.9785 27.2327 22.9785C27.5679 22.9785 27.8942 22.8427 28.1303 22.6064C28.3664 22.3704 28.5023 22.0429 28.5023 21.709C28.5023 21.3751 28.3664 21.0476 28.1303 20.8114Z" fill="#2098D5"/>
<path d="M22.4707 20.4395H14.5375C13.8364 20.4395 13.268 21.008 13.268 21.709C13.268 22.41 13.8364 22.9785 14.5375 22.9785H22.4707C23.1718 22.9785 23.7402 22.41 23.7402 21.709C23.7402 21.008 23.1718 20.4395 22.4707 20.4395Z" fill="#2098D5"/>
</svg>
