<svg width="75" height="64" viewBox="0 0 75 64" fill="none" xmlns="http://www.w3.org/2000/svg">
<path d="M31.2499 47.4999H34.9999C35.6903 47.4999 36.2499 46.9403 36.2499 46.25C36.2499 45.5596 35.6903 45 34.9999 45H31.2499C29.1798 45.0022 27.5021 46.6799 27.4999 48.75V53.75C27.5021 55.8201 29.1798 57.4978 31.2499 57.5H34.9999C35.6903 57.5 36.2499 56.9404 36.2499 56.25V51.25C36.2499 50.5597 35.6903 50.0001 34.9999 50.0001H32.4999C31.8095 50.0001 31.2499 50.5597 31.2499 51.25C31.2499 51.9404 31.8095 52.5 32.4999 52.5H33.7498V55H31.2498C30.5599 54.9992 30.0007 54.44 29.9998 53.7501V48.7499C30.0009 48.0599 30.56 47.5008 31.2499 47.4999Z" fill="#2098D5"/>
<path d="M47.1788 47.2187C46.5775 45.8641 45.2319 44.9936 43.7499 45H39.9999C39.3095 45 38.7499 45.5596 38.7499 46.25V56.25C38.7499 56.9404 39.3097 57.5 39.9999 57.5H43.7499C45.2319 57.5064 46.5775 56.6359 47.1788 55.2813C47.7801 53.9268 47.5235 52.3449 46.5246 51.2499C47.5235 50.1551 47.7803 48.5732 47.1788 47.2187ZM43.75 55.0001H41.25V52.5H43.75C44.4404 52.5 45 53.0598 45 53.75C45 54.4404 44.4404 55.0001 43.75 55.0001ZM43.75 50H41.25V47.4999H43.75C44.4404 47.4999 45 48.0595 45 48.7499C45 49.4403 44.4404 50 43.75 50Z" fill="#2098D5"/>
<path d="M73.6312 0.877295C73.5955 0.844043 73.5579 0.812988 73.5186 0.784277C72.8701 0.278906 72.0722 0.00307617 71.25 0H3.75C2.92734 0.00307617 2.12886 0.279346 1.48022 0.785449C1.44185 0.813574 1.40508 0.843896 1.37021 0.876269C0.506689 1.58101 0.00395508 2.6354 0 3.75V48.75C0.00219727 50.8201 1.67988 52.4978 3.75 52.5H16.354C17.3889 58.9009 26.3027 63.75 37.5 63.75C48.6973 63.75 57.6113 58.9009 58.646 52.5H71.25C73.3201 52.4978 74.9978 50.8201 75 48.75V3.75C74.996 2.63599 74.4939 1.58218 73.6312 0.877295ZM46.25 2.50005H69.7308L47.9856 17.5001H46.25V2.50005ZM28.75 2.50005V17.5001H27.0144L5.26919 2.50005H28.75ZM2.50005 3.75C2.50005 3.71177 2.51851 3.67954 2.52187 3.64233L22.611 17.5001H2.50005V3.75ZM2.52187 48.8577C2.51851 48.8203 2.50005 48.7882 2.50005 48.75V35H22.611L2.52187 48.8577ZM5.26919 50L27.0144 35H28.75V39.8298C21.93 41.6001 17.0985 45.3941 16.354 50H5.26919ZM37.5 61.25C27.3365 61.25 18.75 56.6706 18.75 51.2499C18.75 45.8293 27.3365 41.25 37.5 41.25C47.6635 41.25 56.25 45.8294 56.25 51.2501C56.25 56.6707 47.6635 61.25 37.5 61.25ZM58.646 50C57.9015 45.3941 53.07 41.6001 46.25 39.8298V35H47.9856L69.7308 50H58.646ZM72.5 48.75C72.5 48.7882 72.4815 48.8205 72.4781 48.8577L52.389 35H72.5V48.75ZM72.5 32.5001H45C44.3096 32.5001 43.75 33.0596 43.75 33.75V39.2829C39.6136 38.5724 35.3864 38.5724 31.2501 39.2829V33.75C31.2501 33.0596 30.6904 32.5001 30.0001 32.5001H2.50005V20.0001H30C30.6904 20.0001 31.25 19.4405 31.25 18.7501V2.50005H43.7499V18.75C43.7499 19.4404 44.3095 20 44.9999 20H72.4998L72.5 32.5001ZM72.5 17.5001H52.389L72.4781 3.64233C72.4815 3.67969 72.5 3.71177 72.5 3.75V17.5001Z" fill="#2098D5"/>
</svg>
