<svg width="53" height="70" viewBox="0 0 53 70" fill="none" xmlns="http://www.w3.org/2000/svg">
<path d="M17.5 14.5832C19.1108 14.5832 20.4166 13.2774 20.4166 11.6666C20.4166 10.0558 19.1108 8.75 17.5 8.75C15.8892 8.75 14.5834 10.0558 14.5834 11.6666C14.5834 13.2774 15.8892 14.5832 17.5 14.5832Z" fill="#2098D5"/>
<path d="M35 14.5832C36.6108 14.5832 37.9166 13.2774 37.9166 11.6666C37.9166 10.0558 36.6108 8.75 35 8.75C33.3892 8.75 32.0834 10.0558 32.0834 11.6666C32.0834 13.2774 33.3892 14.5832 35 14.5832Z" fill="#2098D5"/>
<path d="M39.375 35H30.625C29.8189 35 29.1666 35.6523 29.1666 36.4584C29.1666 37.2645 29.8189 37.9168 30.625 37.9168H39.375C40.1811 37.9168 40.8334 37.2645 40.8334 36.4584C40.8334 35.6523 40.1811 35 39.375 35Z" fill="#2098D5"/>
<path d="M39.375 43.75H30.625C29.8189 43.75 29.1666 44.4023 29.1666 45.2084C29.1666 46.0145 29.8189 46.6668 30.625 46.6668H39.375C40.1811 46.6668 40.8334 46.0145 40.8334 45.2084C40.8334 44.4023 40.1811 43.75 39.375 43.75Z" fill="#2098D5"/>
<path d="M24.7916 35H13.125C12.3189 35 11.6666 35.6523 11.6666 36.4584V45.2084C11.6666 46.0145 12.3189 46.6668 13.125 46.6668H24.7916C25.5977 46.6668 26.25 46.0145 26.25 45.2084V36.4584C26.25 35.6523 25.5977 35 24.7916 35ZM23.3334 43.75H14.5834V37.9166H23.3334V43.75Z" fill="#2098D5"/>
<path d="M52.5 48.125V30.625C52.5 28.2125 50.5375 26.25 48.125 26.25C46.783 26.25 45.5953 26.8704 44.7921 27.8246C43.7501 26.8557 42.3653 26.25 40.8334 26.25H35V23.3334H37.9166C41.1339 23.3334 43.75 20.7171 43.75 17.5V8.75C43.75 5.53287 41.1339 2.91662 37.9166 2.91662H29.1666C29.1666 1.30881 27.8578 0 26.25 0C24.6422 0 23.3334 1.30881 23.3334 2.91662H14.5834C11.3661 2.91662 8.75 5.53287 8.75 8.75V17.5C8.75 20.7171 11.3661 23.3334 14.5834 23.3334H17.5V26.25H11.6666C10.1346 26.25 8.74973 26.8557 7.70779 27.8246C6.90471 26.8704 5.71703 26.25 4.375 26.25C1.96246 26.25 0 28.2125 0 30.625V48.125C0 49.3797 0.537988 50.5047 1.38701 51.3032C0.410703 52.7577 0 54.9032 0 56.875C0 57.6811 0.652285 58.3334 1.45838 58.3334C2.26447 58.3334 2.91676 57.6811 2.91676 56.875C2.91676 55.1332 3.49781 52.5 4.37514 52.5C5.25807 52.5 5.82914 55.0919 5.83352 56.8764C5.83639 57.681 6.48867 58.3319 7.29189 58.3319H7.29326C8.09785 58.3319 8.75014 57.6796 8.75014 56.875C8.75014 56.0923 8.68055 55.281 8.54465 54.4938C9.44932 55.0709 10.516 55.4166 11.6668 55.4166V59.8288C9.90664 61.1614 8.75 63.2524 8.75 65.625V68.5416C8.75 69.3477 9.40229 70 10.2084 70H21.875C22.6811 70 23.3334 69.3477 23.3334 68.5416V65.625C23.3334 63.2524 22.1767 61.1614 20.4168 59.8288V55.4166H32.0834V59.8288C30.3233 61.1613 29.1668 63.2522 29.1668 65.625V68.5416C29.1668 69.3477 29.819 70 30.6251 70H42.2918C43.0979 70 43.7501 69.3477 43.7501 68.5416V65.625C43.7501 63.2524 42.5935 61.1614 40.8335 59.8288V55.4166C41.9843 55.4166 43.051 55.0709 43.9556 54.4938C43.8196 55.281 43.75 56.0923 43.75 56.875C43.75 57.6811 44.4023 58.3334 45.2084 58.3334C46.0145 58.3334 46.6668 57.6811 46.6668 56.875C46.6668 55.1332 47.2478 52.5 48.1251 52.5C49.0081 52.5 49.5791 55.0919 49.5835 56.8764C49.5864 57.681 50.2387 58.3319 51.0419 58.3319H51.0433C51.8479 58.3319 52.5001 57.6796 52.5001 56.875C52.5001 54.9032 52.0894 52.7577 51.1131 51.3032C51.962 50.5047 52.5 49.3797 52.5 48.125ZM5.83338 48.125C5.83338 48.9296 5.17973 49.5834 4.375 49.5834C3.57027 49.5834 2.91662 48.9296 2.91662 48.125V30.625C2.91662 29.8204 3.57027 29.1666 4.375 29.1666C5.17973 29.1666 5.83338 29.8203 5.83338 30.625V48.125ZM14.5834 20.4166C12.9756 20.4166 11.6668 19.1078 11.6668 17.5V8.75C11.6668 7.14219 12.9756 5.83338 14.5834 5.83338H37.9168C39.5246 5.83338 40.8334 7.14219 40.8334 8.75V17.5C40.8334 19.1078 39.5246 20.4166 37.9168 20.4166H14.5834ZM32.0834 23.3334V26.25H20.4168V23.3334H32.0834ZM20.4166 67.0834H11.6666V65.625C11.6666 63.2125 13.6291 61.25 16.0416 61.25C18.4542 61.25 20.4166 63.2125 20.4166 65.625V67.0834ZM14.5834 58.4809V55.4166H17.5V58.4809C17.0286 58.3848 16.5411 58.3334 16.0416 58.3334C15.5422 58.3334 15.0548 58.3848 14.5834 58.4809ZM40.8334 67.0834H32.0834V65.625C32.0834 63.2125 34.0458 61.25 36.4584 61.25C38.8709 61.25 40.8334 63.2125 40.8334 65.625V67.0834ZM35 58.4809V55.4166H37.9166V58.4809C37.4452 58.3848 36.9577 58.3334 36.4582 58.3334C35.9588 58.3334 35.4714 58.3848 35 58.4809ZM43.75 49.5834C43.75 51.1912 42.4412 52.5 40.8334 52.5H11.6666C10.0588 52.5 8.75 51.1912 8.75 49.5834V32.0834C8.75 30.4756 10.0588 29.1668 11.6666 29.1668H40.8332C42.4411 29.1668 43.7499 30.4756 43.7499 32.0834L43.75 49.5834ZM49.5834 48.125C49.5834 48.9296 48.9297 49.5834 48.125 49.5834C47.3204 49.5834 46.6666 48.9297 46.6666 48.125V30.625C46.6666 29.8204 47.3203 29.1666 48.125 29.1666C48.9296 29.1666 49.5834 29.8203 49.5834 30.625V48.125Z" fill="#2098D5"/>
</svg>
