<svg width="73" height="73" viewBox="0 0 73 73" fill="none" xmlns="http://www.w3.org/2000/svg">
<path d="M71.7833 65.7H69.35V29.2C69.35 28.5284 68.8062 27.9833 68.1333 27.9833H54.75V25.55C54.75 25.1363 54.5395 24.7507 54.1916 24.5268L37.7167 13.9357V9.73333H51.1C51.7728 9.73333 52.3167 9.18827 52.3167 8.51667V1.21667C52.3167 0.545067 51.7728 0 51.1 0H36.5C35.8272 0 35.2833 0.545067 35.2833 1.21667V8.51667V13.9357L18.8085 24.5268C18.4605 24.7507 18.25 25.1363 18.25 25.55V27.9833H4.86667C4.19385 27.9833 3.65 28.5284 3.65 29.2V65.7H1.21667C0.54385 65.7 0 66.2451 0 66.9167V71.7833C0 72.4549 0.54385 73 1.21667 73H71.7833C72.4562 73 73 72.4549 73 71.7833V66.9167C73 66.2451 72.4562 65.7 71.7833 65.7ZM37.7167 2.43333H49.8833V7.3H37.7167V2.43333ZM54.75 30.4167H66.9167V65.7H54.75V30.4167ZM20.6833 29.2V26.2143L36.5 16.0466L52.3167 26.2143V29.2V65.7H42.5833V54.75C42.5833 51.3957 39.8544 48.6667 36.5 48.6667C33.1457 48.6667 30.4167 51.3957 30.4167 54.75V65.7H20.6833V29.2ZM40.15 54.75V65.7H32.85V54.75C32.85 52.7376 34.4876 51.1 36.5 51.1C38.5124 51.1 40.15 52.7376 40.15 54.75ZM6.08333 30.4167H18.25V65.7H6.08333V30.4167ZM70.5667 70.5667H2.43333V68.1333H4.86667H19.4667H31.6333H41.3667H53.5333H68.1333H70.5667V70.5667Z" fill="#2098D5"/>
</svg>
