<svg width="62" height="62" viewBox="0 0 62 62" fill="none" xmlns="http://www.w3.org/2000/svg">
<path d="M59.0125 0.375V10.3125H40.9125C40.3 6.775 37.3375 4.1875 33.8625 4.1875C30.2875 4.1875 27.425 6.8625 26.8125 10.3125H21.375C20.7875 6.775 17.9125 4.1875 14.325 4.1875C10.75 4.1875 7.8875 6.8625 7.275 10.3125H2.9875V0.375H0.375V61.625H2.9875V51.6875H7.275C7.8875 55.225 10.85 57.8125 14.325 57.8125C17.9 57.8125 20.7625 55.1375 21.375 51.6875H24.875C25.4875 55.225 28.45 57.8125 31.925 57.8125C35.3875 57.8125 38.2375 55.1375 38.9375 51.6875H59.0375V61.625H61.625V0.375H59.0125ZM33.8625 7.05C36.475 7.05 38.425 9.0875 38.425 11.8125C38.425 14.4 36.3375 16.575 33.8625 16.575C31.3875 16.575 29.3 14.4 29.3 11.8125C29.3 9.225 31.3875 7.05 33.8625 7.05ZM14.325 7.05C16.9375 7.05 18.8875 9.0875 18.8875 11.8125C18.8875 14.4 16.8 16.575 14.325 16.575C11.85 16.575 9.7625 14.4 9.7625 11.8125C9.7625 9.225 11.8375 7.05 14.325 7.05ZM7.275 13.0375C7.8875 16.575 10.85 19.1625 14.325 19.1625C17.9125 19.1625 20.7875 16.575 21.375 13.0375H26.825C27.4375 16.575 30.4 19.1625 33.875 19.1625C37.4625 19.1625 40.3375 16.575 40.925 13.0375H59.025V29.6375H55.5125C54.9 26.1 51.9375 23.5125 48.4625 23.5125C44.875 23.5125 42 26.1 41.4125 29.6375H33.1C32.5125 26.1 29.6375 23.5125 26.05 23.5125C22.4625 23.5125 19.5875 26.1 19 29.6375H2.9875V13.0375H7.275ZM53.025 31C53.025 33.5875 50.9375 35.7625 48.4625 35.7625C45.9875 35.7625 43.9 33.5875 43.9 31C43.9 28.4125 45.9875 26.2375 48.4625 26.2375C51.075 26.2375 53.025 28.4125 53.025 31ZM30.6125 31C30.6125 33.5875 28.525 35.7625 26.05 35.7625C23.575 35.7625 21.4875 33.5875 21.4875 31C21.4875 28.4125 23.575 26.2375 26.05 26.2375C28.525 26.2375 30.6125 28.4125 30.6125 31ZM14.325 55.0875C11.85 55.0875 9.7625 52.9125 9.7625 50.325C9.7625 47.7375 11.85 45.5625 14.325 45.5625C16.9375 45.5625 18.8875 47.7375 18.8875 50.325C18.875 52.9125 16.8 55.0875 14.325 55.0875ZM31.9125 55.0875C29.4375 55.0875 27.35 52.9125 27.35 50.325C27.35 47.7375 29.4375 45.5625 31.9125 45.5625C34.3875 45.5625 36.475 47.7375 36.475 50.325C36.475 52.9125 34.3875 55.0875 31.9125 55.0875ZM38.9625 48.9625C38.375 45.425 35.5 42.8375 31.9125 42.8375C28.3375 42.8375 25.475 45.5125 24.8625 48.9625H21.375C20.7875 45.425 17.9125 42.8375 14.325 42.8375C10.75 42.8375 7.8875 45.5125 7.275 48.9625H2.9875V32.3625H19C19.6125 35.9 22.575 38.4875 26.05 38.4875C29.525 38.4875 32.4875 35.9 33.1 32.3625H41.4125C42.025 35.9 44.9875 38.4875 48.4625 38.4875C51.9375 38.4875 54.9 35.9 55.5125 32.3625H59.025V48.9625H38.9625Z" fill="#2098D5"/>
</svg>
