<svg width="69" height="57" viewBox="0 0 69 57" fill="none" xmlns="http://www.w3.org/2000/svg">
<path d="M67.8509 47.5852H60.4529L63.0251 46.8958C63.2549 46.7809 63.5996 46.6659 63.7145 46.3212C63.8293 45.9765 63.9443 45.7466 63.8293 45.4019L62.1233 39.0697C62.1327 38.9579 62.1275 38.8456 62.1058 38.7375L60.9568 34.2563C60.9023 34.1472 60.8213 34.0125 60.7273 33.8885L54.9787 12.5523C55.0094 12.3953 55.0125 12.2334 54.9818 12.0797L53.8328 7.59839C53.762 7.45674 53.6474 7.27172 53.5161 7.12347L51.8793 1.04899C51.7644 0.474421 51.075 0.129709 50.5004 0.244702L39.3548 3.23226C38.7802 3.34712 38.4355 4.03654 38.5505 4.61111L41.0286 13.8328C40.1069 13.3738 39.0705 13.1139 37.9759 13.1139H4.65365C4.19408 13.1139 3.84937 13.3438 3.61951 13.8034C3.38966 14.1481 3.38966 14.6076 3.61951 14.9523L4.99837 17.1355C6.0325 18.9739 6.0325 21.1572 4.99837 22.9956L3.98241 24.6043H1.20653C0.746956 24.6043 0.402243 24.8342 0.17239 25.2937C-0.0574633 25.6384 -0.0574633 26.098 0.17239 26.4427L1.55124 28.6259C2.58538 30.4643 2.58538 32.6475 1.55124 34.486L0.17239 36.6694C-0.0574633 37.0141 -0.0574633 37.4737 0.17239 37.8184C0.402243 38.1631 0.746956 38.3929 1.20653 38.3929H3.90983L4.99837 40.1165C6.0325 41.9549 6.0325 44.1382 4.99837 45.9766L3.98241 47.5853H1.20653C0.517102 47.5853 0.0575306 48.0449 0.0575306 48.7343V55.6286C0.0575306 56.318 0.517102 56.7776 1.20653 56.7776H67.8509C68.5403 56.7776 68.9999 56.318 68.9999 55.6286V48.7343C69 48.0449 68.5403 47.5852 67.8509 47.5852ZM39.4943 36.2665C40.6863 35.0257 41.4229 33.3445 41.4229 31.4986C41.4229 29.6526 40.6863 27.9714 39.4943 26.7306C41.2426 26.3335 42.7441 25.2684 43.7121 23.819L47.6735 38.5598L48.6619 42.4145C48.6885 42.4677 48.7184 42.5193 48.7509 42.5689L50.0989 47.5852H43.1022C44.1996 46.3631 44.87 44.7507 44.87 42.9891C44.8702 39.7187 42.5617 36.9632 39.4943 36.2665ZM52.3388 11.6202L43.4912 14.0332L42.9166 11.8501L51.7643 9.43708L52.3388 11.6202ZM52.9542 13.7957L58.2364 33.7808L49.3501 36.1627L44.821 19.2017C44.7426 18.5374 44.5702 17.9009 44.315 17.3069L44.0337 16.2534L52.9542 13.7957ZM50.0408 38.3929L58.8507 36.1046L59.4277 38.2876L50.6154 40.6911L50.0408 38.3929ZM52.3388 47.3555L51.1336 42.8419L60.0029 40.4646L61.1865 44.9425L52.3388 47.3555ZM50.0408 2.77255L51.1855 7.1034L42.2314 9.50347L41.0783 5.18554L50.0408 2.77255ZM6.95178 15.8716L6.72193 15.4121H37.9759C39.8701 15.4121 41.5061 16.5734 42.2074 18.2192L42.5354 19.4397C42.5587 19.6262 42.572 19.8156 42.572 20.0082C42.572 22.536 40.5038 24.6043 37.9759 24.6043H6.72193L6.95178 24.1447C8.44549 21.6169 8.44549 18.3996 6.95178 15.8716ZM3.50466 27.3621L3.2748 26.9026H34.5288C37.0566 26.9026 39.1249 28.9708 39.1249 31.4987C39.1249 34.0265 37.0566 36.0948 34.5288 36.0948H3.2748L3.50466 35.6352C4.99837 33.1073 4.99837 29.89 3.50466 27.3621ZM6.95178 38.8525L6.72193 38.3929H37.9759C40.5038 38.3929 42.572 40.4612 42.572 42.9891C42.572 45.5169 40.5038 47.5852 37.9759 47.5852H6.72193L6.95178 47.1256C8.44549 44.5978 8.44549 41.3804 6.95178 38.8525ZM66.7019 54.4794H2.35552V49.8833H66.702L66.7019 54.4794Z" fill="#2098D5"/>
<path d="M12.6969 44.1378H37.9758C38.6652 44.1378 39.1248 43.6783 39.1248 42.9888C39.1248 42.2994 38.6652 41.8398 37.9758 41.8398H12.6969C12.0075 41.8398 11.5479 42.2994 11.5479 42.9888C11.5479 43.6783 12.0075 44.1378 12.6969 44.1378Z" fill="#2098D5"/>
<path d="M9.24977 32.6476H34.5286C35.2181 32.6476 35.6776 32.188 35.6776 31.4986C35.6776 30.8092 35.2181 30.3496 34.5286 30.3496H9.24977C8.56034 30.3496 8.10077 30.8092 8.10077 31.4986C8.10077 32.188 8.56034 32.6476 9.24977 32.6476Z" fill="#2098D5"/>
<path d="M12.6969 21.1574H37.9758C38.6652 21.1574 39.1248 20.6978 39.1248 20.0084C39.1248 19.3189 38.6652 18.8594 37.9758 18.8594H12.6969C12.0075 18.8594 11.5479 19.3189 11.5479 20.0084C11.5479 20.6978 12.0075 21.1574 12.6969 21.1574Z" fill="#2098D5"/>
<path d="M48.3173 18.7445L51.8793 32.0734C52.1091 32.533 52.5687 32.8777 53.0283 32.8777C53.0283 32.8777 53.1431 32.8777 53.2581 32.7629C53.8327 32.648 54.1774 31.9586 54.0624 31.384L50.5004 18.1701C50.3856 17.5955 49.6961 17.2508 49.1216 17.3658C48.547 17.4808 48.2023 18.1699 48.3173 18.7445Z" fill="#2098D5"/>
</svg>
