<svg width="70" height="68" viewBox="0 0 70 68" fill="none" xmlns="http://www.w3.org/2000/svg">
<path d="M17.6968 34.6889C15.2103 35.421 13.2047 36.2711 12.332 36.9633C12.0709 37.1704 11.7593 37.2709 11.45 37.2709C11.0312 37.2709 10.6165 37.0866 10.3359 36.733C9.8483 36.1181 9.95138 35.2244 10.5661 34.7368C12.1557 33.4762 15.2133 32.4576 16.8942 31.9629C17.6469 31.7408 18.4368 32.1717 18.6584 32.9246C18.8801 33.6775 18.4495 34.4673 17.6968 34.6889ZM36.9376 44.0451C37.6669 47.7905 36.9582 51.2093 34.8883 53.932C33.0641 56.3313 30.3182 57.9919 27.1561 58.6076C26.2806 58.7781 25.4039 58.8624 24.5398 58.8624C22.2832 58.8624 20.1083 58.2881 18.2347 57.1749C15.2944 55.428 13.3548 52.5246 12.6255 48.7792L12.6113 48.7058C12.4858 48.0538 12.8285 47.4018 13.4368 47.1357C14.4738 46.6815 15.6534 46.238 16.9424 45.8176C17.3494 45.6849 17.7946 45.7428 18.1543 45.9752C23.0509 49.1411 27.4099 48.292 30.7607 43.5205C31.0068 43.17 31.3977 42.9493 31.8249 42.9195C33.1768 42.8256 34.4368 42.7942 35.5695 42.8259C36.2339 42.8445 36.7967 43.3214 36.9241 43.9739L36.9379 44.0442L36.9376 44.0451ZM34.3094 45.6579C33.7886 45.664 33.2435 45.6827 32.677 45.7138C30.1614 49.028 27.0792 50.7139 23.7267 50.7142C21.6326 50.7144 19.4338 50.057 17.2003 48.7276C16.6637 48.9114 16.1513 49.0988 15.6665 49.2884C17.2818 54.9146 22.3566 56.647 26.6129 55.8185C30.8696 54.9897 34.9224 51.4803 34.3094 45.6579ZM26.9491 32.8872C29.529 32.6327 31.7073 32.6684 32.7754 32.9824C32.9093 33.0219 33.0441 33.0405 33.1768 33.0405C33.7909 33.0405 34.3572 32.6392 34.5392 32.0203C34.7606 31.2675 34.3299 30.4778 33.577 30.2562C31.7287 29.7126 28.8006 29.849 26.6699 30.0595C25.8889 30.1363 25.3184 30.8321 25.3954 31.6129C25.4726 32.3939 26.1694 32.9644 26.9491 32.8872ZM43.6714 14.7596C43.7169 14.7638 43.7619 14.7661 43.8064 14.7661C44.5308 14.7661 45.1498 14.2143 45.2193 13.4785C45.2929 12.6972 44.7193 12.0042 43.938 11.9306C41.3572 11.6873 39.226 11.2361 38.2373 10.7235C37.5403 10.3622 36.6829 10.6344 36.322 11.3312C35.9608 12.0277 36.2328 12.8852 36.9295 13.2464C38.7305 14.1799 41.9266 14.5952 43.6714 14.7596ZM53.4956 14.7661C53.5403 14.7661 53.5853 14.7638 53.6306 14.7596C55.7626 14.5588 58.663 14.133 60.373 13.2461C61.0696 12.8849 61.3413 12.0272 60.9801 11.3307C60.6188 10.6344 59.7614 10.3627 59.0647 10.7235C58.0766 11.236 55.9456 11.6872 53.364 11.9306C52.5829 12.0042 52.0092 12.697 52.0827 13.4785C52.152 14.2143 52.771 14.7661 53.4956 14.7661ZM45.7665 42.4852C47.7003 52.417 40.6645 62.7535 29.0368 67.063C28.892 67.1166 28.7395 67.1462 28.5853 67.1509C28.2713 67.1602 27.9565 67.1649 27.6452 67.1649C15.6663 67.1649 5.74074 60.3266 3.85597 50.6463L0.0469398 31.0856C-0.331784 29.141 1.57352 27.3512 6.04322 25.4529C9.6737 23.911 14.6023 22.4915 19.9215 21.4558C25.2407 20.4201 30.3415 19.884 34.2855 19.9534C39.1408 20.0357 41.5785 20.9799 41.9573 22.9243L45.7665 42.4852ZM42.9772 43.0283L39.1941 23.6011C38.8384 23.3293 37.2801 22.7714 33.3568 22.7901C29.7364 22.8143 25.1578 23.331 20.4647 24.2449C15.7716 25.1588 11.3337 26.3979 7.96873 27.7339C4.32373 29.1812 3.08999 30.2901 2.86219 30.6759L6.64517 50.1033C8.29978 58.6017 17.3756 64.5516 28.2676 64.3164C38.454 60.4477 44.632 51.5269 42.9772 43.0283ZM63.0376 2.10604C59.1797 1.28655 54.0704 0.835205 48.6513 0.835205C43.2321 0.835205 38.1228 1.28639 34.2649 2.10604C29.5148 3.11497 27.3024 4.50768 27.3024 6.48891V15.2048C27.3024 15.9895 27.9385 16.6256 28.7232 16.6256C29.508 16.6256 30.1441 15.9895 30.1441 15.2048V6.62499C30.4412 6.28984 31.864 5.4372 35.7187 4.71322C39.2768 4.04497 43.8698 3.67698 48.6513 3.67698C53.4328 3.67698 58.0256 4.04497 61.584 4.71322C65.4386 5.4372 66.8615 6.28984 67.1586 6.62499V26.4167C67.1586 34.3951 60.6709 41.4567 51.0146 43.9886C50.2556 44.1877 49.8015 44.9644 50.0006 45.7232C50.168 46.3615 50.7437 46.7841 51.3741 46.7841C51.4933 46.7841 51.6145 46.7689 51.7354 46.7374C56.9485 45.3704 61.4509 42.7567 64.7557 39.179C68.1868 35.4645 70.0004 31.0515 70.0004 26.4167V6.48891C70 4.50768 67.7877 3.11497 63.0376 2.10604ZM55.2975 35.158C55.3555 35.158 55.4137 35.1545 55.4718 35.1472C56.8173 34.9808 58.0599 34.771 59.165 34.5235C59.8138 34.3781 60.2751 33.802 60.2751 33.1371V33.0656C60.2751 29.3367 58.977 26.1647 56.5212 23.8927C54.0057 21.5653 50.4695 20.3926 46.8221 20.6776C46.0397 20.7385 45.455 21.4221 45.5159 22.2043C45.5769 22.9867 46.2595 23.5735 47.0427 23.5105C49.9051 23.2874 52.6555 24.1873 54.5916 25.9786C56.2163 27.4816 57.1717 29.5429 57.3871 31.9848C56.8751 32.0784 56.3366 32.1643 55.7749 32.242C53.5125 30.2189 51.1213 29.0944 48.6586 28.8979C47.8771 28.8363 47.1917 29.4192 47.1292 30.2012C47.0668 30.9835 47.6503 31.6681 48.4325 31.7307C50.4085 31.8884 52.3868 32.9079 54.3126 34.7611C54.5788 35.0173 54.9326 35.158 55.2975 35.158Z" fill="#2098D5"/>
</svg>
