<svg width="69" height="51" viewBox="0 0 69 51" fill="none" xmlns="http://www.w3.org/2000/svg">
<path d="M67.1608 7.10038H64.1484V4.25005C64.1484 3.61165 63.6704 3.07445 63.0365 2.99993L45.5828 0.950131C41.6687 0.490293 37.7507 1.14481 34.2096 2.84352C30.6683 1.14481 26.751 0.490125 22.8363 0.950131L5.38262 2.99993C4.74875 3.07445 4.27079 3.61165 4.27079 4.25005V7.10038H1.25868C0.563385 7.10038 0 7.66393 0 8.35906V49.5484C0 50.2436 0.563385 50.8071 1.25868 50.8071H67.1608C67.8561 50.8071 68.4195 50.2436 68.4195 49.5484V8.35906C68.4195 7.66393 67.8559 7.10038 67.1608 7.10038ZM45.2892 3.45037L61.6309 5.36961V42.8039L45.5828 40.9193C42.1268 40.5133 38.6682 40.9775 35.4683 42.2607V5.0343C38.5346 3.60192 41.9137 3.05397 45.2892 3.45037ZM23.1302 3.45037C26.5055 3.0538 29.8849 3.60192 32.9511 5.0343V42.261C30.5035 41.2796 27.9049 40.7763 25.2718 40.7763C24.4624 40.7763 23.6493 40.8238 22.8365 40.9191L6.78831 42.8038V5.36961L23.1302 3.45037ZM65.9021 48.2898H2.51736V9.61774H4.27095V44.219C4.27095 44.5785 4.42451 44.9207 4.6932 45.1595C4.96172 45.3983 5.31969 45.5111 5.67648 45.4691L23.1302 43.4193C26.7565 42.9932 30.3882 43.6563 33.6304 45.3366C33.9936 45.5249 34.4256 45.5249 34.7887 45.3366C38.0308 43.6563 41.6611 42.9932 45.289 43.4193L62.7425 45.4691C62.7915 45.4748 62.8405 45.4777 62.8894 45.4777C63.196 45.4777 63.4942 45.3656 63.7258 45.1595C63.9945 44.9207 64.148 44.5785 64.148 44.219V9.61774H65.9018L65.9021 48.2898Z" fill="#2098D5"/>
<path d="M38.3673 10.5412C40.6231 9.92832 42.9448 9.75597 45.266 10.0283L58.3705 11.567C58.4205 11.5728 58.47 11.5757 58.5191 11.5757C59.1486 11.5757 59.6923 11.1043 59.7675 10.4637C59.8484 9.77325 59.3545 9.14794 58.6642 9.06688L45.5595 7.52827C42.9163 7.21796 40.2746 7.41449 37.7074 8.11213C37.0364 8.29439 36.6405 8.98599 36.8228 9.65678C37.005 10.3276 37.6971 10.7233 38.3673 10.5412Z" fill="#2098D5"/>
<path d="M9.8536 11.5753C9.90261 11.5753 9.95228 11.5725 10.0021 11.5666L23.1055 10.0282C25.4236 9.75814 27.7723 9.93453 30.0046 10.5426C30.675 10.725 31.3671 10.3298 31.5497 9.65879C31.7325 8.988 31.3368 8.29623 30.666 8.11364C28.1244 7.42136 25.453 7.22031 22.8128 7.52793L9.70827 9.06654C9.01801 9.1476 8.52393 9.77291 8.60499 10.4633C8.68034 11.1039 9.22409 11.5753 9.8536 11.5753Z" fill="#2098D5"/>
<path d="M38.3673 16.3144C40.6231 15.7015 42.9445 15.5291 45.266 15.8015L58.3705 17.3401C58.4205 17.346 58.47 17.3488 58.5191 17.3488C59.1486 17.3488 59.6923 16.8774 59.7675 16.2368C59.8484 15.5464 59.3545 14.9211 58.6642 14.84L45.5595 13.3014C42.9166 12.9913 40.2747 13.1877 37.7074 13.8853C37.0364 14.0676 36.6405 14.7592 36.8228 15.4299C37.005 16.1006 37.6971 16.4966 38.3673 16.3144Z" fill="#2098D5"/>
<path d="M9.8536 17.3486C9.90261 17.3486 9.95228 17.3457 10.0021 17.3399L23.1055 15.8014C25.4221 15.5316 27.7722 15.7078 30.0046 16.3158C30.675 16.4982 31.3671 16.103 31.5497 15.432C31.7325 14.7612 31.3368 14.0695 30.666 13.8869C28.1241 13.1946 25.4518 12.9936 22.8128 13.3012L9.70827 14.8398C9.01801 14.9208 8.52393 15.5462 8.60499 16.2366C8.68034 16.8772 9.22409 17.3486 9.8536 17.3486Z" fill="#2098D5"/>
<path d="M38.3673 22.0876C40.6231 21.4747 42.9445 21.3023 45.266 21.5747L58.3705 23.1133C58.4205 23.1192 58.47 23.1221 58.5191 23.1221C59.1486 23.1221 59.6923 22.6506 59.7675 22.0101C59.8484 21.3196 59.3545 20.6943 58.6642 20.6133L45.5595 19.0746C42.9166 18.7645 40.2747 18.961 37.7074 19.6585C37.0364 19.8408 36.6405 20.5324 36.8228 21.2032C37.005 21.8739 37.6971 22.2698 38.3673 22.0876Z" fill="#2098D5"/>
<path d="M9.8536 23.1219C9.90261 23.1219 9.95228 23.119 10.0021 23.1132L23.1055 21.5747C25.422 21.3049 27.7722 21.4811 30.0046 22.0891C30.675 22.2717 31.3671 21.8763 31.5497 21.2053C31.7325 20.5345 31.3368 19.8428 30.666 19.6602C28.1243 18.9679 25.452 18.7669 22.8128 19.0743L9.70827 20.6129C9.01801 20.694 8.52393 21.3193 8.60499 22.0097C8.68034 22.6505 9.22409 23.1219 9.8536 23.1219Z" fill="#2098D5"/>
<path d="M38.3673 27.8608C40.6228 27.2479 42.9442 27.0754 45.266 27.3479L58.3705 28.8865C58.4205 28.8924 58.47 28.8953 58.5191 28.8953C59.1486 28.8953 59.6923 28.4239 59.7675 27.7833C59.8484 27.0928 59.3545 26.4675 58.6642 26.3865L45.5595 24.8478C42.9166 24.5379 40.2749 24.7341 37.7074 25.4317C37.0364 25.614 36.6405 26.3056 36.8228 26.9764C37.005 27.6472 37.6971 28.0432 38.3673 27.8608Z" fill="#2098D5"/>
<path d="M9.8536 28.8951C9.90261 28.8951 9.95228 28.8922 10.0021 28.8863L23.1055 27.3479C25.4215 27.0779 27.7718 27.2541 30.0046 27.8623C30.675 28.0447 31.3671 27.6495 31.5497 26.9785C31.7325 26.3077 31.3368 25.616 30.666 25.4334C28.1243 24.7411 25.4513 24.54 22.8128 24.8477L9.70827 26.3863C9.01801 26.4673 8.52393 27.0926 8.60499 27.7831C8.68034 28.4236 9.22409 28.8951 9.8536 28.8951Z" fill="#2098D5"/>
<path d="M58.6644 32.1597L45.5597 30.6211C42.9163 30.311 40.2746 30.5075 37.7076 31.205C37.0366 31.3872 36.6407 32.0789 36.823 32.7496C37.0052 33.4206 37.6973 33.8167 38.3674 33.6343C40.6233 33.0215 42.945 32.8492 45.2662 33.1214L58.3707 34.66C58.4207 34.6659 58.4702 34.6687 58.5192 34.6687C59.1488 34.6687 59.6925 34.1973 59.7677 33.5567C59.8486 32.8663 59.3547 32.2408 58.6644 32.1597Z" fill="#2098D5"/>
<path d="M9.8536 34.6683C9.90261 34.6683 9.95228 34.6655 10.0021 34.6596L23.1055 33.1211C25.4221 32.8513 27.7722 33.0275 30.0046 33.6355C30.675 33.8181 31.3671 33.4227 31.5497 32.7518C31.7325 32.081 31.3368 31.3892 30.666 31.2066C28.1241 30.5143 25.4518 30.3133 22.8128 30.6209L9.70827 32.1595C9.01801 32.2406 8.52393 32.8659 8.60499 33.5563C8.68034 34.1969 9.22409 34.6683 9.8536 34.6683Z" fill="#2098D5"/>
</svg>
