<svg width="43" height="35" viewBox="0 0 43 35" fill="none" xmlns="http://www.w3.org/2000/svg">
<path fill-rule="evenodd" clip-rule="evenodd" d="M4.27002 31.922L5.52602 34.36C10.2 32.163 13.696 29.276 16.011 25.696C18.326 22.115 19.484 18.065 19.484 13.54C19.484 9.98201 18.712 7.01701 17.169 4.64501C15.317 1.79101 12.648 0.363007 9.16502 0.363007C6.73902 0.363007 4.68802 1.18801 3.01302 2.83401C1.33602 4.48101 0.499023 6.53501 0.499023 8.99501C0.499023 11.629 1.32602 13.727 2.98002 15.287C4.63302 16.845 6.69402 17.626 9.16502 17.626C10.972 17.626 12.648 17.032 14.192 15.845C14.457 16.637 14.589 17.581 14.589 18.679C14.589 21.272 13.574 23.829 11.546 26.353C9.51702 28.881 7.09102 30.736 4.27002 31.922ZM27.289 31.922L28.546 34.36C33.22 32.163 36.716 29.276 39.031 25.696C41.346 22.115 42.504 18.065 42.504 13.54C42.504 9.98201 41.731 7.01701 40.188 4.64501C38.336 1.79101 35.668 0.363007 32.184 0.363007C30.64 0.363007 29.208 0.737007 27.885 1.48301C26.562 2.23101 25.503 3.26301 24.71 4.58001C23.916 5.89701 23.519 7.37101 23.519 8.99501C23.519 11.629 24.356 13.727 26.033 15.287C27.708 16.845 29.759 17.626 32.184 17.626C34.037 17.626 35.712 17.032 37.212 15.845C37.476 16.637 37.609 17.581 37.609 18.679C37.609 21.272 36.594 23.829 34.566 26.353C32.537 28.881 30.111 30.736 27.289 31.922Z" fill="#FFCC00"/>
</svg>
