<svg width="21" height="12" viewBox="0 0 21 12" fill="none" xmlns="http://www.w3.org/2000/svg">
<path fill-rule="evenodd" clip-rule="evenodd" d="M20.214 10.3725C20.1968 10.3318 20.1755 10.293 20.1504 10.2564C19.6085 9.46753 18.9476 8.76103 18.1895 8.15971L18.1706 8.1412L18.1643 8.12897L18.1516 8.11673H18.1389C17.849 7.87301 17.5736 7.6138 17.3139 7.34034C17.2138 7.24118 17.1465 7.11579 17.1205 6.97975C17.0946 6.84372 17.111 6.70317 17.1679 6.57619C17.4263 6.12925 17.7348 5.71102 18.0881 5.32907C18.3673 4.99284 18.5894 4.72397 18.7544 4.52223C19.9347 3.06729 20.4466 2.13804 20.29 1.73457L20.233 1.64293C20.1467 1.55984 20.0359 1.50419 19.9157 1.48383C19.6996 1.43386 19.4752 1.42553 19.2557 1.45936L16.3049 1.47786C16.2376 1.46476 16.1682 1.46671 16.1019 1.48383C16.0131 1.50217 15.9685 1.51458 15.9685 1.51458L15.9178 1.53905L15.8797 1.56353C15.8341 1.58958 15.7952 1.62503 15.7656 1.66741C15.7195 1.71454 15.6847 1.77092 15.6639 1.83248C15.3557 2.56987 14.9886 3.28301 14.5661 3.96583C14.3123 4.35708 14.0839 4.69937 13.8682 4.98669C13.7092 5.21255 13.5308 5.42524 13.3351 5.62249C13.215 5.74001 13.0855 5.84851 12.9479 5.94666C12.9131 5.98049 12.8716 6.007 12.8258 6.02486C12.78 6.04273 12.7309 6.05154 12.6814 6.05053C12.618 6.03831 12.5608 6.02605 12.5037 6.01382C12.4078 5.957 12.3291 5.87697 12.2754 5.78159C12.2122 5.66572 12.1733 5.53909 12.161 5.40877C12.1378 5.28361 12.1252 5.15679 12.1231 5.02968C12.1167 4.91964 12.1231 4.76681 12.1294 4.57118C12.1358 4.37556 12.1358 4.24113 12.1358 4.17388C12.1358 3.93547 12.142 3.67243 12.1547 3.39123C12.1674 3.11002 12.1737 2.88377 12.1801 2.71871C12.1864 2.55366 12.1864 2.38273 12.1864 2.19933C12.1885 2.05608 12.1779 1.9128 12.1547 1.77128C12.1283 1.66649 12.0922 1.56419 12.0469 1.46562C12.0018 1.37192 11.9289 1.29312 11.8374 1.23936C11.7307 1.17995 11.6152 1.13667 11.4949 1.11101C11.0391 1.02551 10.5757 0.982545 10.1114 0.982656C9.28702 0.918396 8.45748 0.997004 7.66197 1.21489C7.51513 1.2863 7.38198 1.38139 7.26846 1.49607C7.14789 1.63667 7.12896 1.71026 7.2178 1.7286C7.55351 1.74658 7.86819 1.89139 8.09344 2.13187L8.15061 2.24798C8.21939 2.38565 8.26848 2.53163 8.29655 2.682C8.34486 2.91173 8.3745 3.14482 8.38532 3.37899C8.42365 3.77345 8.42365 4.17046 8.38532 4.56492C8.35359 4.88892 8.32193 5.14567 8.2902 5.32907C8.26928 5.48417 8.22214 5.63491 8.15061 5.77532C8.11688 5.8479 8.07641 5.91766 8.02992 5.98337C8.01645 6.00269 7.99931 6.01904 7.97926 6.03203C7.88976 6.06354 7.79537 6.08013 7.70008 6.08098C7.57259 6.07001 7.45121 6.02341 7.35103 5.94666C7.19369 5.84231 7.05071 5.71899 6.92576 5.5798C6.74136 5.37821 6.57587 5.16133 6.43093 4.93177C6.2469 4.65056 6.05643 4.32664 5.85971 3.94762L5.69472 3.67241C5.59318 3.49513 5.45363 3.23225 5.27595 2.89602C5.09827 2.55979 4.93962 2.22976 4.80001 1.91188C4.75493 1.78977 4.67034 1.68465 4.55879 1.61219L4.50178 1.58174C4.45186 1.55009 4.3987 1.52353 4.34314 1.50234C4.2656 1.47271 4.18455 1.45212 4.10192 1.44115L1.29713 1.45936C1.19181 1.44676 1.08492 1.45691 0.984021 1.48861C0.883121 1.5203 0.790732 1.57295 0.713365 1.64293L0.675253 1.69785C0.647959 1.74421 0.636806 1.79778 0.643493 1.85068C0.647874 1.9387 0.667221 2.02538 0.700661 2.10739C1.11314 2.99381 1.55937 3.85386 2.03954 4.6873C2.52181 5.51258 2.94062 6.18505 3.29599 6.68633C3.65135 7.18762 4.01304 7.67046 4.38109 8.11673C4.74915 8.56299 4.99673 8.85638 5.1173 8.98476C5.23787 9.11313 5.32668 9.20481 5.39648 9.26594L5.65025 9.4922C5.87702 9.69248 6.11891 9.87632 6.37376 10.0423C6.69105 10.2502 7.04636 10.458 7.4271 10.6659C7.85376 10.8875 8.30804 11.0562 8.77884 11.1674C9.26383 11.2972 9.76728 11.3507 10.27 11.3262H11.4504C11.6526 11.3237 11.8467 11.2498 11.996 11.1184L12.0342 11.0695C12.0675 11.0138 12.0932 10.9542 12.1104 10.8922C12.1368 10.809 12.1497 10.7224 12.1485 10.6354C12.1388 10.3873 12.16 10.139 12.2119 9.89577C12.2479 9.72578 12.3077 9.56109 12.3896 9.40653C12.4479 9.30221 12.5229 9.20735 12.6117 9.12535C12.6614 9.07235 12.7192 9.02716 12.7831 8.99102C12.8092 8.97606 12.8367 8.96374 12.8655 8.95431C12.967 8.93465 13.0718 8.93753 13.1719 8.96297C13.272 8.9884 13.3647 9.03555 13.4429 9.10087C13.6732 9.26085 13.8839 9.44566 14.0711 9.6513C14.2615 9.87138 14.4964 10.1159 14.7692 10.391C14.988 10.6139 15.228 10.8164 15.4862 10.996L15.6957 11.1062C15.8612 11.1971 16.0383 11.2669 16.2224 11.3139C16.4077 11.3764 16.6061 11.3933 16.7998 11.3629L19.4207 11.3262C19.6285 11.3352 19.8354 11.2954 20.0236 11.2101C20.1421 11.1579 20.2352 11.0636 20.2837 10.9471C20.3084 10.8406 20.3105 10.7305 20.29 10.6232C20.2745 10.5372 20.249 10.453 20.214 10.3725Z" fill="#2098D5"/>
</svg>
