<?xml version="1.0" encoding="utf-8"?><svg xmlns="http://www.w3.org/2000/svg" xmlns:xlink="http://www.w3.org/1999/xlink"><symbol viewBox="0 0 24 24" id="answer" xmlns="http://www.w3.org/2000/svg"><path d="M11.953 9.469a.937.937 0 110 1.875.937.937 0 010-1.875zm3.281.937a.937.937 0 101.875 0 .937.937 0 00-1.875 0zm-8.437 0a.937.937 0 101.875 0 .937.937 0 00-1.875 0zm16.379 8.792a2.816 2.816 0 010 3.978 2.804 2.804 0 01-1.988.823 2.81 2.81 0 01-1.99-.823l-5.146-5.135a.936.936 0 01-.234-.39l-1.121-3.691a.938.938 0 011.147-1.176l3.784 1.048a.938.938 0 01.412.24l5.136 5.126zm-7.633-2.318l3.473 3.465 1.326-1.326-3.452-3.445-1.904-.528.557 1.834zm6.307 3.645l-.18-.181-1.327 1.326.18.18a.938.938 0 001.327-1.325zm-9.329-1.098a11.346 11.346 0 01-4.835-.823.94.94 0 00-.719.005L2.7 20.41l1.438-3.407a.937.937 0 00-.164-.988c-1.372-1.542-2.098-3.387-2.098-5.336 0-4.855 4.542-8.805 10.125-8.805s10.125 3.95 10.125 8.805c0 1.152-.283 2.308-.84 3.436a.938.938 0 101.68.83C23.652 13.559 24 12.124 24 10.68 24 4.791 18.617 0 12 0S0 4.791 0 10.68c0 2.223.754 4.328 2.186 6.124L.074 21.807a.937.937 0 001.228 1.229l6.044-2.552c1.474.551 3.037.83 4.654.83.2 0 .403-.005.604-.013a.938.938 0 00-.082-1.873z"/></symbol><symbol viewBox="0 0 16 18" id="markerButton" xmlns="http://www.w3.org/2000/svg"><path fill-rule="evenodd" clip-rule="evenodd" d="M7.615 0C9.65 0 11.562.775 13 2.184a7.33 7.33 0 012.23 5.272A7.33 7.33 0 0113 12.728L7.615 18l-5.384-5.271A7.33 7.33 0 010 7.456a7.33 7.33 0 012.23-5.272A7.648 7.648 0 017.616 0zm.006 10.406c1.892 0 3.426-1.503 3.426-3.357 0-1.854-1.534-3.358-3.426-3.358-1.891 0-3.425 1.504-3.425 3.358s1.534 3.357 3.425 3.357z"/></symbol><symbol viewBox="0 0 124.512 124.512" id="playArrow" xmlns="http://www.w3.org/2000/svg"><path d="M113.956 57.006l-97.4-56.2c-4-2.3-9 .6-9 5.2v112.5c0 4.6 5 7.5 9 5.2l97.4-56.2c4-2.401 4-8.2 0-10.5z"/></symbol><symbol viewBox="0 0 137 147" id="polygon" xmlns="http://www.w3.org/2000/svg"><g filter="url(#dfilter0_d)"><path d="M102.463 58.572c5.333 3.079 5.333 10.777 0 13.856l-59.944 34.609c-5.334 3.079-12-.77-12-6.928V30.891c0-6.158 6.666-10.007 12-6.928l59.944 34.609z"/></g><defs><filter id="dfilter0_d" x=".519" y=".879" width="135.944" height="145.242" filterUnits="userSpaceOnUse" color-interpolation-filters="sRGB"><feFlood flood-opacity="0" result="BackgroundImageFix"/><feColorMatrix in="SourceAlpha" values="0 0 0 0 0 0 0 0 0 0 0 0 0 0 0 0 0 0 127 0"/><feOffset dy="8"/><feGaussianBlur stdDeviation="15"/><feColorMatrix values="0 0 0 0 1 0 0 0 0 0.8 0 0 0 0 0 0 0 0 0.6 0"/><feBlend in2="BackgroundImageFix" result="effect1_dropShadow"/><feBlend in="SourceGraphic" in2="effect1_dropShadow" result="shape"/></filter></defs></symbol><symbol viewBox="0 0 62 62" id="programIcon1" xmlns="http://www.w3.org/2000/svg"><path d="M59.013.375v9.938h-18.1c-.613-3.538-3.575-6.126-7.05-6.126-3.575 0-6.438 2.675-7.05 6.125h-5.438c-.587-3.537-3.462-6.124-7.05-6.124-3.575 0-6.437 2.675-7.05 6.125H2.987V.374H.375v61.25h2.612v-9.938h4.288c.612 3.538 3.575 6.126 7.05 6.126 3.575 0 6.438-2.675 7.05-6.126h3.5c.613 3.538 3.575 6.126 7.05 6.126 3.463 0 6.312-2.675 7.012-6.126h20.1v9.938h2.588V.375h-2.612zM33.863 7.05c2.612 0 4.562 2.038 4.562 4.763 0 2.587-2.087 4.762-4.563 4.762-2.475 0-4.562-2.175-4.562-4.762 0-2.588 2.087-4.763 4.562-4.763zm-19.538 0c2.613 0 4.563 2.038 4.563 4.763 0 2.587-2.088 4.762-4.563 4.762-2.475 0-4.563-2.175-4.563-4.762 0-2.588 2.075-4.763 4.563-4.763zm-7.05 5.987c.612 3.538 3.575 6.126 7.05 6.126 3.588 0 6.463-2.588 7.05-6.126h5.45c.613 3.538 3.575 6.126 7.05 6.126 3.587 0 6.462-2.588 7.05-6.126h18.1v16.6h-3.512c-.613-3.537-3.575-6.125-7.05-6.125-3.588 0-6.463 2.588-7.05 6.125H33.1c-.587-3.537-3.463-6.125-7.05-6.125-3.588 0-6.463 2.588-7.05 6.125H2.988v-16.6h4.287zM53.025 31c0 2.587-2.087 4.763-4.563 4.763-2.475 0-4.562-2.175-4.562-4.763 0-2.587 2.087-4.762 4.563-4.762 2.612 0 4.562 2.175 4.562 4.762zm-22.412 0c0 2.587-2.088 4.763-4.563 4.763-2.475 0-4.563-2.175-4.563-4.763 0-2.587 2.088-4.762 4.563-4.762 2.475 0 4.563 2.175 4.563 4.762zM14.325 55.087c-2.475 0-4.563-2.175-4.563-4.762 0-2.588 2.088-4.763 4.563-4.763 2.613 0 4.563 2.175 4.563 4.763-.013 2.587-2.088 4.762-4.563 4.762zm17.588 0c-2.476 0-4.563-2.175-4.563-4.762 0-2.588 2.087-4.763 4.563-4.763 2.475 0 4.562 2.175 4.562 4.763 0 2.587-2.087 4.762-4.563 4.762zm7.05-6.125c-.588-3.537-3.463-6.125-7.05-6.125-3.576 0-6.438 2.675-7.05 6.125h-3.488c-.587-3.537-3.462-6.125-7.05-6.125-3.575 0-6.437 2.675-7.05 6.125H2.987v-16.6H19c.613 3.538 3.575 6.125 7.05 6.125 3.475 0 6.437-2.587 7.05-6.125h8.313c.612 3.538 3.575 6.125 7.05 6.125 3.474 0 6.437-2.587 7.05-6.125h3.512v16.6H38.962z"/></symbol><symbol viewBox="0 0 69 57" id="programIcon2" xmlns="http://www.w3.org/2000/svg"><path d="M67.85 47.585h-7.397l2.572-.69c.23-.114.575-.23.69-.574.114-.344.23-.574.114-.92l-1.706-6.331a1.16 1.16 0 00-.017-.333l-1.15-4.48a2.442 2.442 0 00-.229-.368L54.98 12.552a1.23 1.23 0 00.003-.472l-1.15-4.482a2.33 2.33 0 00-.316-.475L51.88 1.05c-.115-.575-.804-.92-1.379-.804L39.355 3.232c-.575.115-.92.805-.804 1.38l2.478 9.22a6.83 6.83 0 00-3.053-.718H4.654c-.46 0-.805.23-1.034.69-.23.344-.23.804 0 1.148l1.378 2.184a5.922 5.922 0 010 5.86l-1.016 1.608H1.207c-.46 0-.805.23-1.035.69-.23.344-.23.804 0 1.149l1.38 2.183a5.922 5.922 0 010 5.86l-1.38 2.183c-.23.345-.23.805 0 1.15.23.344.575.574 1.035.574H3.91l1.088 1.724a5.922 5.922 0 010 5.86l-1.016 1.608H1.207c-.69 0-1.15.46-1.15 1.15v6.894c0 .689.46 1.149 1.15 1.149H67.85c.69 0 1.149-.46 1.149-1.15v-6.894c0-.69-.46-1.149-1.15-1.149zM39.495 36.266a6.868 6.868 0 001.929-4.767 6.868 6.868 0 00-1.929-4.768 6.933 6.933 0 004.218-2.912l3.961 14.74.989 3.855c.026.054.056.105.089.155l1.348 5.016h-6.997a6.863 6.863 0 001.768-4.596c0-3.27-2.308-6.026-5.376-6.722zM52.34 11.62l-8.848 2.413-.574-2.183 8.847-2.413.575 2.183zm.615 2.176l5.282 19.985-8.886 2.382-4.529-16.961a6.82 6.82 0 00-.506-1.895l-.281-1.054 8.92-2.457zm-2.913 24.597l8.81-2.288.577 2.183-8.813 2.403-.574-2.298zm2.298 8.962l-1.205-4.513 8.869-2.377 1.184 4.477-8.848 2.413zm-2.3-44.582l1.145 4.33-8.955 2.4-1.153-4.317 8.963-2.413zM6.95 15.872l-.23-.46h31.255a4.612 4.612 0 014.231 2.807l.328 1.22c.024.187.037.377.037.57a4.61 4.61 0 01-4.596 4.595H6.722l.23-.46a8.197 8.197 0 000-8.272zm-3.446 11.49l-.23-.46h31.254a4.61 4.61 0 014.596 4.597 4.61 4.61 0 01-4.596 4.596H3.275l.23-.46a8.197 8.197 0 000-8.273zm3.447 11.49l-.23-.46h31.254a4.61 4.61 0 014.596 4.597 4.61 4.61 0 01-4.596 4.596H6.722l.23-.46a8.197 8.197 0 000-8.273zm59.75 15.627H2.356v-4.596h64.346v4.596z"/><path d="M12.697 44.138h25.279c.69 0 1.149-.46 1.149-1.15 0-.689-.46-1.148-1.15-1.148H12.698c-.69 0-1.15.46-1.15 1.149 0 .69.46 1.149 1.15 1.149zM9.25 32.648h25.279c.69 0 1.149-.46 1.149-1.15 0-.689-.46-1.148-1.15-1.148H9.25c-.69 0-1.15.46-1.15 1.149 0 .689.46 1.149 1.15 1.149zm3.447-11.491h25.279c.69 0 1.149-.46 1.149-1.149 0-.69-.46-1.149-1.15-1.149H12.698c-.69 0-1.15.46-1.15 1.15 0 .689.46 1.148 1.15 1.148zm35.62-2.413l3.562 13.33c.23.459.69.804 1.15.804 0 0 .114 0 .23-.115.574-.115.918-.804.803-1.379L50.5 18.17c-.114-.575-.804-.92-1.378-.804-.575.115-.92.804-.805 1.378z"/></symbol><symbol viewBox="0 0 53 70" id="programIcon3" xmlns="http://www.w3.org/2000/svg"><path d="M17.5 14.583a2.917 2.917 0 100-5.833 2.917 2.917 0 000 5.833zm17.5 0a2.917 2.917 0 100-5.833 2.917 2.917 0 000 5.833zM39.375 35h-8.75a1.458 1.458 0 100 2.917h8.75a1.458 1.458 0 100-2.917zm0 8.75h-8.75a1.458 1.458 0 100 2.917h8.75a1.458 1.458 0 100-2.917zM24.792 35H13.125c-.806 0-1.458.652-1.458 1.458v8.75c0 .806.652 1.459 1.458 1.459h11.667c.806 0 1.458-.653 1.458-1.459v-8.75c0-.806-.652-1.458-1.458-1.458zm-1.459 8.75h-8.75v-5.833h8.75v5.833z"/><path d="M52.5 48.125v-17.5a4.38 4.38 0 00-4.375-4.375c-1.342 0-2.53.62-3.333 1.575a5.796 5.796 0 00-3.959-1.575H35v-2.917h2.917A5.84 5.84 0 0043.75 17.5V8.75a5.84 5.84 0 00-5.833-5.833h-8.75A2.92 2.92 0 0026.25 0a2.92 2.92 0 00-2.917 2.917h-8.75A5.84 5.84 0 008.75 8.75v8.75a5.84 5.84 0 005.833 5.833H17.5v2.917h-5.833a5.796 5.796 0 00-3.96 1.575c-.802-.955-1.99-1.575-3.332-1.575A4.38 4.38 0 000 30.625v17.5a4.35 4.35 0 001.387 3.178C.411 52.758 0 54.903 0 56.875a1.458 1.458 0 102.917 0c0-1.742.58-4.375 1.458-4.375.883 0 1.454 2.592 1.459 4.376a1.46 1.46 0 001.458 1.456h.001c.805 0 1.457-.652 1.457-1.457 0-.783-.07-1.594-.205-2.381a5.785 5.785 0 003.122.923v4.412c-1.76 1.332-2.917 3.423-2.917 5.796v2.917c0 .806.652 1.458 1.458 1.458h11.667c.806 0 1.458-.652 1.458-1.458v-2.917c0-2.373-1.156-4.464-2.916-5.796v-4.412h11.666v4.412c-1.76 1.332-2.916 3.423-2.916 5.796v2.917c0 .806.652 1.458 1.458 1.458h11.667c.806 0 1.458-.652 1.458-1.458v-2.917c0-2.373-1.157-4.464-2.916-5.796v-4.412c1.15 0 2.217-.346 3.122-.923a14.118 14.118 0 00-.206 2.381 1.458 1.458 0 102.917 0c0-1.742.58-4.375 1.458-4.375.883 0 1.454 2.592 1.459 4.376a1.46 1.46 0 001.458 1.456h.001c.805 0 1.457-.652 1.457-1.457 0-1.972-.41-4.117-1.387-5.572a4.352 4.352 0 001.387-3.178zm-46.667 0a1.46 1.46 0 01-2.916 0v-17.5a1.46 1.46 0 012.916 0v17.5zm8.75-27.708a2.92 2.92 0 01-2.916-2.917V8.75a2.92 2.92 0 012.916-2.917h23.334a2.92 2.92 0 012.916 2.917v8.75a2.92 2.92 0 01-2.916 2.917H14.583zm17.5 2.916v2.917H20.417v-2.917h11.666zm-11.666 43.75h-8.75v-1.458a4.38 4.38 0 014.375-4.375 4.38 4.38 0 014.375 4.375v1.458zm-5.834-8.602v-3.064H17.5v3.064a7.294 7.294 0 00-2.917 0zm26.25 8.602h-8.75v-1.458a4.38 4.38 0 014.375-4.375 4.38 4.38 0 014.375 4.375v1.458zM35 58.481v-3.064h2.917v3.064a7.294 7.294 0 00-2.917 0zm8.75-8.898a2.92 2.92 0 01-2.917 2.917H11.667a2.92 2.92 0 01-2.917-2.917v-17.5a2.92 2.92 0 012.917-2.916h29.166a2.92 2.92 0 012.917 2.916v17.5zm5.833-1.458a1.46 1.46 0 01-2.916 0v-17.5a1.46 1.46 0 012.916 0v17.5z"/></symbol><symbol viewBox="0 0 73 73" id="programIcon4" xmlns="http://www.w3.org/2000/svg"><path d="M71.783 65.7H69.35V29.2c0-.672-.544-1.217-1.217-1.217H54.75V25.55c0-.414-.21-.8-.558-1.023L37.717 13.936V9.733H51.1c.673 0 1.217-.545 1.217-1.216v-7.3C52.317.545 51.773 0 51.1 0H36.5c-.673 0-1.217.545-1.217 1.217v12.719l-16.475 10.59c-.348.225-.558.61-.558 1.024v2.433H4.867c-.673 0-1.217.545-1.217 1.217v36.5H1.217C.544 65.7 0 66.245 0 66.917v4.866C0 72.455.544 73 1.217 73h70.566c.673 0 1.217-.545 1.217-1.217v-4.866c0-.672-.544-1.217-1.217-1.217zM37.717 2.433h12.166V7.3H37.717V2.433zM54.75 30.417h12.167V65.7H54.75V30.417zM20.683 29.2v-2.986L36.5 16.047l15.817 10.167V65.7h-9.734V54.75a6.09 6.09 0 00-6.083-6.083 6.09 6.09 0 00-6.083 6.083V65.7h-9.734V29.2zM40.15 54.75V65.7h-7.3V54.75a3.654 3.654 0 013.65-3.65 3.654 3.654 0 013.65 3.65zM6.083 30.417H18.25V65.7H6.083V30.417zm64.484 40.15H2.433v-2.434h68.134v2.434z"/></symbol><symbol viewBox="0 0 69 51" id="programIcon5" xmlns="http://www.w3.org/2000/svg"><path d="M67.16 7.1h-3.012V4.25c0-.638-.478-1.176-1.111-1.25L45.582.95A20.64 20.64 0 0034.21 2.844 20.638 20.638 0 0022.836.95L5.383 3A1.259 1.259 0 004.27 4.25V7.1H1.259C.563 7.1 0 7.664 0 8.36v41.188c0 .696.563 1.26 1.259 1.26H67.16c.695 0 1.258-.564 1.258-1.26V8.36c0-.695-.563-1.259-1.258-1.259zM45.29 3.45l16.34 1.92v37.434l-16.047-1.885a20.634 20.634 0 00-10.115 1.342V5.034A18.133 18.133 0 0145.29 3.45zm-22.16 0a18.132 18.132 0 019.821 1.584v37.227a20.604 20.604 0 00-10.114-1.342L6.788 42.804V5.37L23.13 3.45zm42.772 44.84H2.517V9.618h1.754v34.601a1.258 1.258 0 001.405 1.25l17.454-2.05a18.138 18.138 0 0110.5 1.918c.364.188.796.188 1.159 0a18.136 18.136 0 0110.5-1.918l17.453 2.05a1.258 1.258 0 001.405-1.25V9.618h1.755V48.29z"/><path d="M38.367 10.541a18.138 18.138 0 016.899-.513l13.105 1.539a1.259 1.259 0 00.294-2.5L45.56 7.528a20.634 20.634 0 00-7.853.584 1.259 1.259 0 10.66 2.43zM9.854 11.575c.049 0 .098-.002.148-.008l13.103-1.539a18.252 18.252 0 016.9.515 1.259 1.259 0 00.661-2.43 20.768 20.768 0 00-7.853-.585L9.708 9.067a1.259 1.259 0 00.146 2.508zm28.513 4.739a18.135 18.135 0 016.899-.512l13.105 1.538a1.259 1.259 0 00.294-2.5L45.56 13.301a20.64 20.64 0 00-7.853.584 1.259 1.259 0 10.66 2.43zM9.854 17.349c.049 0 .098-.003.148-.01l13.103-1.538a18.261 18.261 0 016.9.515 1.259 1.259 0 00.661-2.43 20.77 20.77 0 00-7.853-.585L9.708 14.84a1.259 1.259 0 00.146 2.509zm28.513 4.739a18.135 18.135 0 016.899-.513l13.105 1.538a1.259 1.259 0 00.294-2.5L45.56 19.075a20.642 20.642 0 00-7.853.584 1.259 1.259 0 10.66 2.429zM9.854 23.122c.049 0 .098-.003.148-.009l13.103-1.538a18.261 18.261 0 016.9.514 1.259 1.259 0 10.661-2.429 20.774 20.774 0 00-7.853-.586L9.708 20.613a1.259 1.259 0 00.146 2.509zm28.513 4.738a18.133 18.133 0 016.899-.512l13.105 1.539a1.259 1.259 0 00.294-2.5l-13.105-1.54a20.644 20.644 0 00-7.853.585 1.259 1.259 0 10.66 2.429zM9.854 28.895c.049 0 .098-.003.148-.009l13.103-1.538a18.255 18.255 0 016.9.514 1.259 1.259 0 00.661-2.429 20.769 20.769 0 00-7.853-.585L9.708 26.386a1.259 1.259 0 00.146 2.51zm48.81 3.265L45.56 30.62a20.64 20.64 0 00-7.852.584 1.258 1.258 0 10.66 2.43 18.143 18.143 0 016.898-.514l13.105 1.539a1.259 1.259 0 00.294-2.5zm-48.81 2.508c.049 0 .098-.002.148-.008l13.103-1.539a18.261 18.261 0 016.9.514 1.259 1.259 0 10.661-2.428 20.77 20.77 0 00-7.853-.586L9.708 32.16a1.259 1.259 0 00.146 2.508z"/></symbol><symbol viewBox="0 0 75 64" id="programIcon6" xmlns="http://www.w3.org/2000/svg"><path d="M31.25 47.5H35a1.25 1.25 0 100-2.5h-3.75a3.754 3.754 0 00-3.75 3.75v5a3.754 3.754 0 003.75 3.75H35c.69 0 1.25-.56 1.25-1.25v-5c0-.69-.56-1.25-1.25-1.25h-2.5a1.25 1.25 0 100 2.5h1.25V55h-2.5c-.69 0-1.25-.56-1.25-1.25v-5c0-.69.56-1.25 1.25-1.25zm15.929-.281A3.734 3.734 0 0043.749 45H40c-.69 0-1.25.56-1.25 1.25v10c0 .69.56 1.25 1.25 1.25h3.75a3.734 3.734 0 002.776-6.25 3.733 3.733 0 00.654-4.031zM43.75 55h-2.5v-2.5h2.5a1.25 1.25 0 010 2.5zm0-5h-2.5v-2.5h2.5a1.25 1.25 0 110 2.5z"/><path d="M73.631.877A3.713 3.713 0 0071.25 0H3.75a3.712 3.712 0 00-2.38.876A3.726 3.726 0 000 3.75v45a3.754 3.754 0 003.75 3.75h12.604c1.035 6.4 9.949 11.25 21.146 11.25 11.197 0 20.111-4.85 21.146-11.25H71.25A3.754 3.754 0 0075 48.75v-45A3.727 3.727 0 0073.631.877zM46.25 2.5h23.48l-21.744 15H46.25v-15zm-17.5 0v15h-1.736L5.27 2.5h23.48zM2.5 3.75c0-.038.019-.07.022-.108L22.61 17.5H2.5V3.75zm.022 45.108c-.003-.038-.022-.07-.022-.108V35h20.111L2.521 48.858zM5.269 50l21.745-15h1.736v4.83C21.93 41.6 17.099 45.394 16.354 50H5.269zM37.5 61.25c-10.163 0-18.75-4.58-18.75-10s8.587-10 18.75-10 18.75 4.58 18.75 10-8.587 10-18.75 10zM58.646 50c-.745-4.606-5.576-8.4-12.396-10.17V35h1.736L69.73 50H58.646zM72.5 48.75c0 .038-.019.07-.022.108L52.39 35H72.5v13.75zm0-16.25H45c-.69 0-1.25.56-1.25 1.25v5.533a36.918 36.918 0 00-12.5 0V33.75c0-.69-.56-1.25-1.25-1.25H2.5V20H30c.69 0 1.25-.56 1.25-1.25V2.5h12.5v16.25c0 .69.56 1.25 1.25 1.25h27.5v12.5zm0-15H52.389l20.09-13.858c.002.038.021.07.021.108V17.5z"/></symbol><symbol viewBox="0 0 70 68" id="programIcon7" xmlns="http://www.w3.org/2000/svg"><path d="M17.697 34.689c-2.487.732-4.492 1.582-5.365 2.274a1.418 1.418 0 01-1.996-.23 1.421 1.421 0 01.23-1.996c1.59-1.26 4.647-2.28 6.328-2.774a1.42 1.42 0 11.803 2.726zm19.24 9.356c.73 3.745.021 7.164-2.049 9.887-1.824 2.4-4.57 4.06-7.732 4.676-.875.17-1.752.254-2.616.254-2.257 0-4.432-.574-6.305-1.687-2.94-1.747-4.88-4.65-5.61-8.396l-.014-.073a1.42 1.42 0 01.826-1.57 38.801 38.801 0 013.505-1.318 1.421 1.421 0 011.212.157c4.897 3.166 9.256 2.317 12.607-2.455.246-.35.637-.57 1.064-.6a38.893 38.893 0 013.744-.094 1.42 1.42 0 011.355 1.148l.014.07v.001zm-2.628 1.613a37.96 37.96 0 00-1.632.056c-2.516 3.314-5.598 5-8.95 5-2.094 0-4.293-.657-6.527-1.986-.536.183-1.049.37-1.534.56 1.616 5.627 6.69 7.359 10.947 6.53 4.257-.828 8.31-4.338 7.696-10.16zm-7.36-12.77c2.58-.255 4.758-.22 5.826.094a1.421 1.421 0 00.802-2.726c-1.848-.543-4.776-.407-6.907-.196a1.42 1.42 0 10.28 2.827zM43.671 14.76a1.421 1.421 0 00.267-2.829c-2.58-.244-4.712-.695-5.7-1.208a1.42 1.42 0 10-1.309 2.523c1.801.934 4.998 1.35 6.742 1.514zm9.825.006c.044 0 .09-.002.135-.006 2.132-.201 5.032-.627 6.742-1.514a1.42 1.42 0 00-1.308-2.523c-.988.513-3.12.964-5.701 1.208a1.42 1.42 0 00.132 2.835zm-7.73 27.72c1.934 9.931-5.102 20.268-16.73 24.577a1.426 1.426 0 01-.45.088c-.315.01-.63.014-.94.014-11.98 0-21.905-6.838-23.79-16.519l-3.81-19.56c-.378-1.945 1.528-3.735 5.997-5.633 3.63-1.542 8.56-2.962 13.879-3.997 5.319-1.036 10.42-1.572 14.363-1.503 4.856.083 7.294 1.027 7.672 2.971l3.81 19.561zm-2.789.542l-3.783-19.427c-.356-.272-1.914-.83-5.837-.81-3.62.023-8.2.54-12.892 1.454-4.693.914-9.131 2.153-12.496 3.489-3.645 1.447-4.879 2.556-5.107 2.942l3.783 19.427c1.655 8.499 10.73 14.449 21.623 14.213 10.186-3.868 16.364-12.79 14.71-21.288zm20.06-40.922C59.18 1.286 54.07.836 48.652.836c-5.419 0-10.528.45-14.386 1.27-4.75 1.009-6.963 2.402-6.963 4.383v8.716a1.42 1.42 0 102.842 0v-8.58c.297-.335 1.72-1.188 5.575-1.912 3.558-.668 8.15-1.036 12.932-1.036s9.375.368 12.933 1.036c3.855.724 5.278 1.577 5.575 1.912v19.792c0 7.978-6.488 15.04-16.144 17.572a1.42 1.42 0 10.72 2.748c5.214-1.367 9.716-3.98 13.02-7.558C68.188 35.464 70 31.051 70 26.417V6.489c0-1.981-2.212-3.374-6.962-4.383zm-7.74 33.052c.059 0 .117-.004.175-.01a38.913 38.913 0 003.693-.625 1.42 1.42 0 001.11-1.386v-.071c0-3.73-1.298-6.901-3.754-9.173-2.515-2.328-6.052-3.5-9.699-3.215a1.42 1.42 0 10.22 2.832c2.863-.223 5.614.677 7.55 2.469 1.624 1.503 2.58 3.564 2.795 6.006-.512.093-1.05.18-1.612.257-2.262-2.023-4.654-3.148-7.116-3.344a1.422 1.422 0 00-.227 2.833c1.976.157 3.955 1.177 5.88 3.03.267.256.62.397.986.397z"/></symbol><symbol viewBox="0 0 65 65" id="programIcon8" xmlns="http://www.w3.org/2000/svg"><path d="M31.912 54.944a1.28 1.28 0 00-.897-.372 1.28 1.28 0 00-.898.372 1.279 1.279 0 00-.372.897 1.274 1.274 0 001.27 1.27 1.274 1.274 0 001.27-1.27 1.28 1.28 0 00-.373-.897z"/><path d="M37.957 43.232v-9.341a1.27 1.27 0 00-1.744-1.178l-21.876 8.81H7.291C3.271 41.523 0 44.794 0 48.816c0 4.02 3.27 7.292 7.292 7.292h.839v7.623c0 .701.568 1.27 1.27 1.27h5.182a1.27 1.27 0 001.27-1.27V56.72l20.36 8.19a1.267 1.267 0 001.185-.127c.35-.236.559-.63.559-1.051V54.39a5.73 5.73 0 004.452-5.578c0-2.719-1.906-5-4.452-5.579zM13.313 62.461H10.67v-6.355h2.643v6.355zm0-8.894H7.292a4.758 4.758 0 01-4.753-4.752 4.758 4.758 0 014.753-4.752h6.022v9.504zm22.105 8.284l-19.565-7.869V43.65l13.892-5.595v12.6a1.27 1.27 0 002.54 0V37.032l3.133-1.262v26.08zm2.539-10.122v-5.836a3.187 3.187 0 011.913 2.918 3.187 3.187 0 01-1.913 2.918zm16.563-4.15h-7.188a1.27 1.27 0 000 2.539h7.188a1.27 1.27 0 000-2.54zm-5.895-9.303a1.27 1.27 0 00-1.795 0l-2.48 2.48a1.27 1.27 0 001.796 1.795l2.48-2.48a1.27 1.27 0 000-1.795zm.094 19.231l-2.563-2.563a1.27 1.27 0 00-1.795 1.796l2.562 2.562a1.266 1.266 0 001.796 0 1.27 1.27 0 000-1.795z"/><path d="M59.922 0H36.309a5.084 5.084 0 00-5.079 5.078v.508H9.902a3.05 3.05 0 00-3.047 3.047V28.69a3.05 3.05 0 003.047 3.047h1.312v3.894a1.27 1.27 0 002.167.897l4.791-4.79H43.39a3.05 3.05 0 003.047-3.048v-3.808h13.485c2.8 0 5.078-2.278 5.078-5.078V5.078C65 2.278 62.722 0 59.922 0zM43.898 28.691c0 .28-.228.508-.508.508H17.646c-.336 0-.66.134-.897.372l-2.996 2.996v-2.098a1.27 1.27 0 00-1.27-1.27h-2.58a.508.508 0 01-.508-.508V8.633c0-.28.227-.508.507-.508H31.23v11.68c0 2.8 2.278 5.078 5.079 5.078h7.589v3.808zm18.563-8.886c0 1.4-1.14 2.539-2.54 2.539H36.31c-1.4 0-2.54-1.14-2.54-2.54V5.079c0-1.4 1.14-2.539 2.54-2.539h23.613c1.4 0 2.539 1.14 2.539 2.54v14.726z"/><path d="M53.215 11.342l-8.688-5.016a1.269 1.269 0 00-1.904 1.1v10.032a1.27 1.27 0 001.904 1.1l8.688-5.017a1.27 1.27 0 000-2.199zm-8.053 3.917V9.624l4.88 2.817-4.88 2.818zM27.233 13.33H14.537a1.27 1.27 0 000 2.54h12.696a1.27 1.27 0 100-2.54zm.897 7.481a1.279 1.279 0 00-.897-.372 1.28 1.28 0 00-.898.372 1.28 1.28 0 00-.372.898c0 .334.136.661.372.897a1.272 1.272 0 002.167-.897 1.28 1.28 0 00-.372-.898zm-5.66-.371h-7.932a1.27 1.27 0 000 2.538h7.933a1.27 1.27 0 000-2.539z"/></symbol><symbol viewBox="0 0 277.33 277.33" id="stopButton" xmlns="http://www.w3.org/2000/svg"><path d="M231.677 0H45.665C20.45 0 0 20.442 0 45.657v186.021c0 25.207 20.45 45.652 45.665 45.652h186.012c25.223 0 45.653-20.445 45.653-45.652V45.657C277.338 20.434 256.899 0 231.677 0z"/></symbol></svg>