<?xml version="1.0" encoding="utf-8"?><svg xmlns="http://www.w3.org/2000/svg" xmlns:xlink="http://www.w3.org/1999/xlink"><symbol viewBox="0 0 24 24" id="answer" xmlns="http://www.w3.org/2000/svg"><path d="M11.953 9.469a.937.937 0 110 1.875.937.937 0 010-1.875zm3.281.937a.937.937 0 101.875 0 .937.937 0 00-1.875 0zm-8.437 0a.937.937 0 101.875 0 .937.937 0 00-1.875 0zm16.379 8.792a2.816 2.816 0 010 3.978 2.804 2.804 0 01-1.988.823 2.81 2.81 0 01-1.99-.823l-5.146-5.135a.936.936 0 01-.234-.39l-1.121-3.691a.938.938 0 011.147-1.176l3.784 1.048a.938.938 0 01.412.24l5.136 5.126zm-7.633-2.318l3.473 3.465 1.326-1.326-3.452-3.445-1.904-.528.557 1.834zm6.307 3.645l-.18-.181-1.327 1.326.18.18a.938.938 0 001.327-1.325zm-9.329-1.098a11.346 11.346 0 01-4.835-.823.94.94 0 00-.719.005L2.7 20.41l1.438-3.407a.937.937 0 00-.164-.988c-1.372-1.542-2.098-3.387-2.098-5.336 0-4.855 4.542-8.805 10.125-8.805s10.125 3.95 10.125 8.805c0 1.152-.283 2.308-.84 3.436a.938.938 0 101.68.83C23.652 13.559 24 12.124 24 10.68 24 4.791 18.617 0 12 0S0 4.791 0 10.68c0 2.223.754 4.328 2.186 6.124L.074 21.807a.937.937 0 001.228 1.229l6.044-2.552c1.474.551 3.037.83 4.654.83.2 0 .403-.005.604-.013a.938.938 0 00-.082-1.873z"/></symbol><symbol viewBox="0 0 16 18" id="markerButton" xmlns="http://www.w3.org/2000/svg"><path fill-rule="evenodd" clip-rule="evenodd" d="M7.615 0C9.65 0 11.562.775 13 2.184a7.33 7.33 0 012.23 5.272A7.33 7.33 0 0113 12.728L7.615 18l-5.384-5.271A7.33 7.33 0 010 7.456a7.33 7.33 0 012.23-5.272A7.648 7.648 0 017.616 0zm.006 10.406c1.892 0 3.426-1.503 3.426-3.357 0-1.854-1.534-3.358-3.426-3.358-1.891 0-3.425 1.504-3.425 3.358s1.534 3.357 3.425 3.357z"/></symbol><symbol viewBox="0 0 124.512 124.512" id="playArrow" xmlns="http://www.w3.org/2000/svg"><path d="M113.956 57.006l-97.4-56.2c-4-2.3-9 .6-9 5.2v112.5c0 4.6 5 7.5 9 5.2l97.4-56.2c4-2.401 4-8.2 0-10.5z"/></symbol><symbol viewBox="0 0 137 147" id="polygon" xmlns="http://www.w3.org/2000/svg"><g filter="url(#dfilter0_d)"><path d="M102.463 58.572c5.333 3.079 5.333 10.777 0 13.856l-59.944 34.609c-5.334 3.079-12-.77-12-6.928V30.891c0-6.158 6.666-10.007 12-6.928l59.944 34.609z"/></g><defs><filter id="dfilter0_d" x=".519" y=".879" width="135.944" height="145.242" filterUnits="userSpaceOnUse" color-interpolation-filters="sRGB"><feFlood flood-opacity="0" result="BackgroundImageFix"/><feColorMatrix in="SourceAlpha" values="0 0 0 0 0 0 0 0 0 0 0 0 0 0 0 0 0 0 127 0"/><feOffset dy="8"/><feGaussianBlur stdDeviation="15"/><feColorMatrix values="0 0 0 0 1 0 0 0 0 0.8 0 0 0 0 0 0 0 0 0.6 0"/><feBlend in2="BackgroundImageFix" result="effect1_dropShadow"/><feBlend in="SourceGraphic" in2="effect1_dropShadow" result="shape"/></filter></defs></symbol><symbol viewBox="0 0 277.33 277.33" id="stopButton" xmlns="http://www.w3.org/2000/svg"><path d="M231.677 0H45.665C20.45 0 0 20.442 0 45.657v186.021c0 25.207 20.45 45.652 45.665 45.652h186.012c25.223 0 45.653-20.445 45.653-45.652V45.657C277.338 20.434 256.899 0 231.677 0z"/></symbol></svg>