<svg width="46" height="45" viewBox="0 0 46 45" fill="none" xmlns="http://www.w3.org/2000/svg">
<circle cx="23.375" cy="22.5" r="22.5" fill="#E21D44"/>
<path fill-rule="evenodd" clip-rule="evenodd" d="M28.121 32.3354H19.4084C16.4499 32.3354 14.0422 29.9003 14.0422 26.9074V18.0926C14.0422 15.0996 16.4499 12.6646 19.4084 12.6646H28.121C31.0805 12.6646 33.4872 15.0996 33.4872 18.0926V26.9074C33.4872 29.9003 31.0805 32.3354 28.121 32.3354ZM31.7619 26.9074V18.0926C31.7619 16.0615 30.1288 14.4091 28.121 14.4091H19.4084C17.4006 14.4091 15.7675 16.0615 15.7675 18.0926V26.9074C15.7675 28.9385 17.4006 30.5909 19.4084 30.5909H28.121C30.1288 30.5909 31.7619 28.9385 31.7619 26.9074ZM28.9857 18.5117C28.6536 18.5117 28.3265 18.374 28.0916 18.1361C27.8567 17.8982 27.72 17.5681 27.72 17.2309C27.72 16.8938 27.8557 16.5637 28.0916 16.3258C28.3265 16.0878 28.6536 15.9511 28.9857 15.9511C29.3188 15.9511 29.6458 16.0878 29.8807 16.3258C30.1166 16.5637 30.2513 16.8938 30.2513 17.2309C30.2513 17.5671 30.1166 17.8982 29.8807 18.1361C29.6448 18.374 29.3188 18.5117 28.9857 18.5117ZM23.7652 27.5686C21.0021 27.5686 18.7543 25.2945 18.7543 22.5C18.7543 19.7055 21.0021 17.4314 23.7652 17.4314C26.5283 17.4314 28.7761 19.7055 28.7761 22.5C28.7761 25.2945 26.5283 27.5686 23.7652 27.5686ZM23.7652 19.177C21.9539 19.177 20.4796 20.6674 20.4796 22.5C20.4796 24.3326 21.9539 25.823 23.7652 25.823C25.5766 25.823 27.0498 24.3326 27.0498 22.5C27.0498 20.6674 25.5766 19.177 23.7652 19.177Z" fill="white"/>
</svg>
